<mxfile host="Electron" modified="2023-12-11T04:57:01.650Z" agent="Mozilla/5.0 (Windows NT 10.0; Win64; x64) AppleWebKit/537.36 (KHTML, like Gecko) draw.io/22.1.2 Chrome/114.0.5735.289 Electron/25.9.4 Safari/537.36" etag="Fhk80gUYBI42a16PHU4L" version="22.1.2" type="device" pages="9">
  <diagram id="B_KoKgPy18ipY7hgWPaa" name="context-view">
    <mxGraphModel dx="1055" dy="758" grid="1" gridSize="10" guides="1" tooltips="1" connect="1" arrows="1" fold="1" page="1" pageScale="1" pageWidth="1800" pageHeight="1200" math="0" shadow="0">
      <root>
        <mxCell id="0" />
        <mxCell id="1" parent="0" />
        <mxCell id="5kSLq2RCdNyfLO1lBiao-1" value="Loyalty platform" style="rounded=0;whiteSpace=wrap;html=1;" vertex="1" parent="1">
          <mxGeometry x="120" y="820" width="120" height="60" as="geometry" />
        </mxCell>
        <mxCell id="5kSLq2RCdNyfLO1lBiao-2" value="Online Booking systems" style="rounded=0;whiteSpace=wrap;html=1;" vertex="1" parent="1">
          <mxGeometry x="270" y="820" width="120" height="60" as="geometry" />
        </mxCell>
        <mxCell id="5kSLq2RCdNyfLO1lBiao-3" value="&lt;div&gt;&lt;span style=&quot;background-color: initial;&quot;&gt;Agent&lt;/span&gt;&lt;br&gt;&lt;/div&gt;&lt;div&gt;platforms&lt;/div&gt;" style="rounded=0;whiteSpace=wrap;html=1;" vertex="1" parent="1">
          <mxGeometry x="420" y="820" width="120" height="60" as="geometry" />
        </mxCell>
        <mxCell id="5kSLq2RCdNyfLO1lBiao-4" value="Contact Centre System" style="rounded=0;whiteSpace=wrap;html=1;" vertex="1" parent="1">
          <mxGeometry x="580" y="820" width="120" height="60" as="geometry" />
        </mxCell>
        <mxCell id="5kSLq2RCdNyfLO1lBiao-5" value="Passenger Reservation System" style="rounded=0;whiteSpace=wrap;html=1;" vertex="1" parent="1">
          <mxGeometry x="730" y="820" width="120" height="60" as="geometry" />
        </mxCell>
        <mxCell id="5kSLq2RCdNyfLO1lBiao-6" value="Inflight retail and Meal order system" style="rounded=0;whiteSpace=wrap;html=1;" vertex="1" parent="1">
          <mxGeometry x="870" y="820" width="120" height="60" as="geometry" />
        </mxCell>
        <mxCell id="5kSLq2RCdNyfLO1lBiao-7" value="Offer Management System" style="rounded=0;whiteSpace=wrap;html=1;" vertex="1" parent="1">
          <mxGeometry x="120" y="910" width="120" height="60" as="geometry" />
        </mxCell>
        <mxCell id="5kSLq2RCdNyfLO1lBiao-8" value="Marketing management system" style="rounded=0;whiteSpace=wrap;html=1;" vertex="1" parent="1">
          <mxGeometry x="270" y="910" width="120" height="60" as="geometry" />
        </mxCell>
        <mxCell id="5kSLq2RCdNyfLO1lBiao-9" value="Check in systems (self, agent)" style="rounded=0;whiteSpace=wrap;html=1;" vertex="1" parent="1">
          <mxGeometry x="870" y="910" width="120" height="60" as="geometry" />
        </mxCell>
        <mxCell id="5kSLq2RCdNyfLO1lBiao-10" value="Knowledge base for support agents to" style="rounded=0;whiteSpace=wrap;html=1;" vertex="1" parent="1">
          <mxGeometry x="420" y="910" width="120" height="60" as="geometry" />
        </mxCell>
        <mxCell id="5kSLq2RCdNyfLO1lBiao-11" value="&lt;div&gt;&amp;nbsp;Baggage management and handling&lt;/div&gt;&lt;div&gt;systems&lt;/div&gt;" style="rounded=0;whiteSpace=wrap;html=1;" vertex="1" parent="1">
          <mxGeometry x="730" y="910" width="120" height="60" as="geometry" />
        </mxCell>
        <mxCell id="5kSLq2RCdNyfLO1lBiao-12" value="Compensation Management" style="rounded=0;whiteSpace=wrap;html=1;" vertex="1" parent="1">
          <mxGeometry x="860" y="620" width="120" height="60" as="geometry" />
        </mxCell>
        <mxCell id="5kSLq2RCdNyfLO1lBiao-13" value="Case Management" style="rounded=0;whiteSpace=wrap;html=1;" vertex="1" parent="1">
          <mxGeometry x="570" y="620" width="120" height="60" as="geometry" />
        </mxCell>
        <mxCell id="5kSLq2RCdNyfLO1lBiao-14" value="Customer Analytics" style="rounded=0;whiteSpace=wrap;html=1;" vertex="1" parent="1">
          <mxGeometry x="710" y="620" width="120" height="60" as="geometry" />
        </mxCell>
        <mxCell id="5kSLq2RCdNyfLO1lBiao-15" value="Customer Profile Management" style="rounded=0;whiteSpace=wrap;html=1;" vertex="1" parent="1">
          <mxGeometry x="140" y="620" width="120" height="60" as="geometry" />
        </mxCell>
        <mxCell id="5kSLq2RCdNyfLO1lBiao-16" value="Customer Interaction Management" style="rounded=0;whiteSpace=wrap;html=1;" vertex="1" parent="1">
          <mxGeometry x="280" y="620" width="120" height="60" as="geometry" />
        </mxCell>
        <mxCell id="5kSLq2RCdNyfLO1lBiao-17" value="Customer Order Management" style="rounded=0;whiteSpace=wrap;html=1;" vertex="1" parent="1">
          <mxGeometry x="420" y="620" width="120" height="60" as="geometry" />
        </mxCell>
        <mxCell id="5kSLq2RCdNyfLO1lBiao-18" value="INTEGRATIONS" style="rounded=0;whiteSpace=wrap;html=1;" vertex="1" parent="1">
          <mxGeometry x="110" y="730" width="890" height="60" as="geometry" />
        </mxCell>
        <mxCell id="5kSLq2RCdNyfLO1lBiao-19" value="CAPABILITIES" style="rounded=0;whiteSpace=wrap;html=1;" vertex="1" parent="1">
          <mxGeometry x="110" y="530" width="890" height="60" as="geometry" />
        </mxCell>
        <mxCell id="5kSLq2RCdNyfLO1lBiao-20" value="STAKEHOLDERS" style="rounded=0;whiteSpace=wrap;html=1;" vertex="1" parent="1">
          <mxGeometry x="110" y="280" width="890" height="60" as="geometry" />
        </mxCell>
        <mxCell id="5kSLq2RCdNyfLO1lBiao-21" value="PLATFORM INTEGRATIONS" style="rounded=0;whiteSpace=wrap;html=1;" vertex="1" parent="1">
          <mxGeometry x="120" y="1010" width="870" height="60" as="geometry" />
        </mxCell>
        <mxCell id="5kSLq2RCdNyfLO1lBiao-22" value="LOGGING" style="rounded=0;whiteSpace=wrap;html=1;" vertex="1" parent="1">
          <mxGeometry x="120" y="1090" width="120" height="60" as="geometry" />
        </mxCell>
        <mxCell id="5kSLq2RCdNyfLO1lBiao-23" value="MONITORING" style="rounded=0;whiteSpace=wrap;html=1;" vertex="1" parent="1">
          <mxGeometry x="270" y="1090" width="120" height="60" as="geometry" />
        </mxCell>
        <mxCell id="5kSLq2RCdNyfLO1lBiao-24" value="ANALYTICS" style="rounded=0;whiteSpace=wrap;html=1;" vertex="1" parent="1">
          <mxGeometry x="420" y="1090" width="120" height="60" as="geometry" />
        </mxCell>
        <mxCell id="5kSLq2RCdNyfLO1lBiao-25" value="SECURITY" style="rounded=0;whiteSpace=wrap;html=1;" vertex="1" parent="1">
          <mxGeometry x="570" y="1090" width="120" height="60" as="geometry" />
        </mxCell>
        <mxCell id="5kSLq2RCdNyfLO1lBiao-26" value="DEVOPS" style="rounded=0;whiteSpace=wrap;html=1;" vertex="1" parent="1">
          <mxGeometry x="730" y="1090" width="120" height="60" as="geometry" />
        </mxCell>
        <mxCell id="5kSLq2RCdNyfLO1lBiao-27" value="INFRA" style="rounded=0;whiteSpace=wrap;html=1;" vertex="1" parent="1">
          <mxGeometry x="880" y="1090" width="120" height="60" as="geometry" />
        </mxCell>
        <mxCell id="5kSLq2RCdNyfLO1lBiao-28" value="Customer Affairs" style="rounded=0;whiteSpace=wrap;" vertex="1" parent="1">
          <mxGeometry x="125" y="370" width="120" height="60" as="geometry" />
        </mxCell>
        <mxCell id="5kSLq2RCdNyfLO1lBiao-29" value="Skywards" style="rounded=0;whiteSpace=wrap;" vertex="1" parent="1">
          <mxGeometry x="265" y="370" width="120" height="60" as="geometry" />
        </mxCell>
        <mxCell id="5kSLq2RCdNyfLO1lBiao-30" value="Marketing" style="rounded=0;whiteSpace=wrap;" vertex="1" parent="1">
          <mxGeometry x="125" y="450" width="110" height="60" as="geometry" />
        </mxCell>
        <mxCell id="5kSLq2RCdNyfLO1lBiao-31" value="Sales" style="rounded=0;whiteSpace=wrap;" vertex="1" parent="1">
          <mxGeometry x="570" y="370" width="120" height="60" as="geometry" />
        </mxCell>
        <mxCell id="5kSLq2RCdNyfLO1lBiao-32" value="Contact Center" style="rounded=0;whiteSpace=wrap;" vertex="1" parent="1">
          <mxGeometry x="715" y="370" width="120" height="60" as="geometry" />
        </mxCell>
        <mxCell id="5kSLq2RCdNyfLO1lBiao-33" value="Corporate Communications" style="rounded=0;whiteSpace=wrap;" vertex="1" parent="1">
          <mxGeometry x="415" y="370" width="110" height="60" as="geometry" />
        </mxCell>
        <mxCell id="5kSLq2RCdNyfLO1lBiao-34" value="In-flight retail" style="rounded=0;whiteSpace=wrap;" vertex="1" parent="1">
          <mxGeometry x="265" y="450" width="120" height="60" as="geometry" />
        </mxCell>
        <mxCell id="5kSLq2RCdNyfLO1lBiao-35" value="Catering" style="rounded=0;whiteSpace=wrap;" vertex="1" parent="1">
          <mxGeometry x="415" y="450" width="120" height="60" as="geometry" />
        </mxCell>
        <mxCell id="5kSLq2RCdNyfLO1lBiao-36" value="Airport Operations" style="rounded=0;whiteSpace=wrap;" vertex="1" parent="1">
          <mxGeometry x="570" y="450" width="120" height="60" as="geometry" />
        </mxCell>
        <mxCell id="5kSLq2RCdNyfLO1lBiao-37" value="Chauffer Driven Services" style="rounded=0;whiteSpace=wrap;" vertex="1" parent="1">
          <mxGeometry x="715" y="450" width="120" height="60" as="geometry" />
        </mxCell>
        <mxCell id="5kSLq2RCdNyfLO1lBiao-38" value="Data Privacy Office" style="rounded=0;whiteSpace=wrap;" vertex="1" parent="1">
          <mxGeometry x="865" y="450" width="120" height="60" as="geometry" />
        </mxCell>
        <mxCell id="5kSLq2RCdNyfLO1lBiao-39" value="Customer Relations" style="rounded=0;whiteSpace=wrap;" vertex="1" parent="1">
          <mxGeometry x="865" y="370" width="120" height="60" as="geometry" />
        </mxCell>
        <mxCell id="5kSLq2RCdNyfLO1lBiao-40" value="USERS" style="rounded=0;whiteSpace=wrap;html=1;" vertex="1" parent="1">
          <mxGeometry x="110" y="100" width="890" height="60" as="geometry" />
        </mxCell>
        <mxCell id="5kSLq2RCdNyfLO1lBiao-41" value="Passengers " style="rounded=0;whiteSpace=wrap;" vertex="1" parent="1">
          <mxGeometry x="130" y="180" width="120" height="60" as="geometry" />
        </mxCell>
        <mxCell id="5kSLq2RCdNyfLO1lBiao-42" value="Cabin Crew" style="rounded=0;whiteSpace=wrap;" vertex="1" parent="1">
          <mxGeometry x="270" y="180" width="120" height="60" as="geometry" />
        </mxCell>
        <mxCell id="5kSLq2RCdNyfLO1lBiao-43" value="Sales" style="rounded=0;whiteSpace=wrap;" vertex="1" parent="1">
          <mxGeometry x="575" y="180" width="120" height="60" as="geometry" />
        </mxCell>
        <mxCell id="5kSLq2RCdNyfLO1lBiao-44" value="Contact Center" style="rounded=0;whiteSpace=wrap;" vertex="1" parent="1">
          <mxGeometry x="720" y="180" width="120" height="60" as="geometry" />
        </mxCell>
        <mxCell id="5kSLq2RCdNyfLO1lBiao-45" value="Corporate Communications" style="rounded=0;whiteSpace=wrap;" vertex="1" parent="1">
          <mxGeometry x="420" y="180" width="110" height="60" as="geometry" />
        </mxCell>
        <mxCell id="5kSLq2RCdNyfLO1lBiao-46" value="Customer Relations" style="rounded=0;whiteSpace=wrap;" vertex="1" parent="1">
          <mxGeometry x="870" y="180" width="120" height="60" as="geometry" />
        </mxCell>
      </root>
    </mxGraphModel>
  </diagram>
  <diagram name="Page-2" id="uqiaN6ztv9noLNGgs9Kw">
    <mxGraphModel dx="1424" dy="910" grid="1" gridSize="10" guides="1" tooltips="1" connect="1" arrows="1" fold="1" page="1" pageScale="1" pageWidth="1800" pageHeight="1200" math="0" shadow="0">
      <root>
        <mxCell id="pP9tDQBffpjNEWrVpB4a-0" />
        <mxCell id="pP9tDQBffpjNEWrVpB4a-1" parent="pP9tDQBffpjNEWrVpB4a-0" />
        <mxCell id="PNAIs5kzrbzdRNxsqS2j-10" value="" style="rounded=0;whiteSpace=wrap;html=1;fillColor=none;dashed=1;verticalAlign=middle;" parent="pP9tDQBffpjNEWrVpB4a-1" vertex="1">
          <mxGeometry x="1460" y="165" width="320" height="870" as="geometry" />
        </mxCell>
        <mxCell id="pP9tDQBffpjNEWrVpB4a-55" value="" style="rounded=0;whiteSpace=wrap;html=1;fillColor=none;dashed=1;verticalAlign=middle;" parent="pP9tDQBffpjNEWrVpB4a-1" vertex="1">
          <mxGeometry x="30" y="160" width="230" height="980" as="geometry" />
        </mxCell>
        <mxCell id="PNAIs5kzrbzdRNxsqS2j-20" style="edgeStyle=orthogonalEdgeStyle;rounded=0;orthogonalLoop=1;jettySize=auto;html=1;entryX=0;entryY=0.25;entryDx=0;entryDy=0;" parent="pP9tDQBffpjNEWrVpB4a-1" source="PNAIs5kzrbzdRNxsqS2j-10" target="Rts7eVzzd_GZlkzJQfAq-42" edge="1">
          <mxGeometry relative="1" as="geometry">
            <Array as="points">
              <mxPoint x="1636" y="60" />
              <mxPoint x="280" y="60" />
              <mxPoint x="280" y="380" />
            </Array>
          </mxGeometry>
        </mxCell>
        <mxCell id="Rts7eVzzd_GZlkzJQfAq-42" value="" style="rounded=0;whiteSpace=wrap;html=1;fillColor=none;dashed=1;verticalAlign=middle;" parent="pP9tDQBffpjNEWrVpB4a-1" vertex="1">
          <mxGeometry x="340" y="160" width="530" height="880" as="geometry" />
        </mxCell>
        <mxCell id="PNAIs5kzrbzdRNxsqS2j-21" style="edgeStyle=orthogonalEdgeStyle;rounded=0;orthogonalLoop=1;jettySize=auto;html=1;entryX=0;entryY=0.5;entryDx=0;entryDy=0;" parent="pP9tDQBffpjNEWrVpB4a-1" source="pP9tDQBffpjNEWrVpB4a-14" target="PNAIs5kzrbzdRNxsqS2j-10" edge="1">
          <mxGeometry relative="1" as="geometry" />
        </mxCell>
        <mxCell id="pP9tDQBffpjNEWrVpB4a-14" value="" style="rounded=0;whiteSpace=wrap;html=1;fillColor=none;fontColor=#ffffff;strokeColor=#000000;verticalAlign=middle;dashed=1;" parent="pP9tDQBffpjNEWrVpB4a-1" vertex="1">
          <mxGeometry x="950" y="160" width="450" height="880" as="geometry" />
        </mxCell>
        <mxCell id="JTZxDjC7wxZ5BFhppaQA-4" value="" style="rounded=0;whiteSpace=wrap;html=1;fillColor=none;" parent="pP9tDQBffpjNEWrVpB4a-1" vertex="1">
          <mxGeometry x="1001" y="260.75" width="350" height="109.25" as="geometry" />
        </mxCell>
        <mxCell id="lOTJQNplEwWjjSjJ1z2Q-9" value="" style="rounded=0;whiteSpace=wrap;html=1;fillColor=none;" parent="pP9tDQBffpjNEWrVpB4a-1" vertex="1">
          <mxGeometry x="1001" y="413" width="350" height="107" as="geometry" />
        </mxCell>
        <mxCell id="lOTJQNplEwWjjSjJ1z2Q-31" style="edgeStyle=orthogonalEdgeStyle;rounded=0;orthogonalLoop=1;jettySize=auto;html=1;entryX=0;entryY=0.5;entryDx=0;entryDy=0;startArrow=classic;startFill=1;" parent="pP9tDQBffpjNEWrVpB4a-1" source="Rts7eVzzd_GZlkzJQfAq-42" target="pP9tDQBffpjNEWrVpB4a-14" edge="1">
          <mxGeometry relative="1" as="geometry" />
        </mxCell>
        <mxCell id="pP9tDQBffpjNEWrVpB4a-22" value="" style="rounded=0;whiteSpace=wrap;html=1;verticalAlign=middle;fillColor=none;" parent="pP9tDQBffpjNEWrVpB4a-1" vertex="1">
          <mxGeometry x="520" y="220" width="310" height="500" as="geometry" />
        </mxCell>
        <mxCell id="pP9tDQBffpjNEWrVpB4a-26" value="Data Mesh" style="text;html=1;strokeColor=none;fillColor=none;align=center;verticalAlign=middle;whiteSpace=wrap;rounded=0;fontStyle=1" parent="pP9tDQBffpjNEWrVpB4a-1" vertex="1">
          <mxGeometry x="390" y="130" width="405" height="30" as="geometry" />
        </mxCell>
        <mxCell id="pP9tDQBffpjNEWrVpB4a-32" value="Loyalty" style="rounded=0;whiteSpace=wrap;html=1;verticalAlign=middle;" parent="pP9tDQBffpjNEWrVpB4a-1" vertex="1">
          <mxGeometry x="80" y="294" width="120" height="45" as="geometry" />
        </mxCell>
        <mxCell id="pP9tDQBffpjNEWrVpB4a-33" value="Booking Systems" style="rounded=0;whiteSpace=wrap;html=1;verticalAlign=middle;" parent="pP9tDQBffpjNEWrVpB4a-1" vertex="1">
          <mxGeometry x="80" y="359" width="120" height="45" as="geometry" />
        </mxCell>
        <mxCell id="pP9tDQBffpjNEWrVpB4a-34" value="Contact Centre System" style="rounded=0;whiteSpace=wrap;html=1;verticalAlign=middle;" parent="pP9tDQBffpjNEWrVpB4a-1" vertex="1">
          <mxGeometry x="80" y="423" width="120" height="45" as="geometry" />
        </mxCell>
        <mxCell id="pP9tDQBffpjNEWrVpB4a-35" value="Passenger Reservation" style="rounded=0;whiteSpace=wrap;html=1;verticalAlign=middle;" parent="pP9tDQBffpjNEWrVpB4a-1" vertex="1">
          <mxGeometry x="80" y="488" width="120" height="45" as="geometry" />
        </mxCell>
        <mxCell id="pP9tDQBffpjNEWrVpB4a-36" value="Inflight Retail" style="rounded=0;whiteSpace=wrap;html=1;verticalAlign=middle;" parent="pP9tDQBffpjNEWrVpB4a-1" vertex="1">
          <mxGeometry x="80" y="552" width="120" height="45" as="geometry" />
        </mxCell>
        <mxCell id="pP9tDQBffpjNEWrVpB4a-37" value="Meal Order System Integration" style="rounded=0;whiteSpace=wrap;html=1;verticalAlign=middle;" parent="pP9tDQBffpjNEWrVpB4a-1" vertex="1">
          <mxGeometry x="80" y="617" width="120" height="45" as="geometry" />
        </mxCell>
        <mxCell id="pP9tDQBffpjNEWrVpB4a-38" value="Offer Management System" style="rounded=0;whiteSpace=wrap;html=1;verticalAlign=middle;" parent="pP9tDQBffpjNEWrVpB4a-1" vertex="1">
          <mxGeometry x="80" y="681" width="120" height="45" as="geometry" />
        </mxCell>
        <mxCell id="pP9tDQBffpjNEWrVpB4a-39" value="Marketing Management System" style="rounded=0;whiteSpace=wrap;html=1;verticalAlign=middle;" parent="pP9tDQBffpjNEWrVpB4a-1" vertex="1">
          <mxGeometry x="80" y="745" width="120" height="45" as="geometry" />
        </mxCell>
        <mxCell id="pP9tDQBffpjNEWrVpB4a-40" value="Baggage Management and Handling Systems" style="rounded=0;whiteSpace=wrap;html=1;verticalAlign=middle;" parent="pP9tDQBffpjNEWrVpB4a-1" vertex="1">
          <mxGeometry x="80" y="939" width="120" height="45" as="geometry" />
        </mxCell>
        <mxCell id="pP9tDQBffpjNEWrVpB4a-43" value="Knowledge Base&amp;nbsp;" style="rounded=0;whiteSpace=wrap;html=1;verticalAlign=middle;" parent="pP9tDQBffpjNEWrVpB4a-1" vertex="1">
          <mxGeometry x="80" y="810" width="120" height="45" as="geometry" />
        </mxCell>
        <mxCell id="pP9tDQBffpjNEWrVpB4a-45" value="Agent-based and Self-Service Check-in Systems" style="rounded=0;whiteSpace=wrap;html=1;verticalAlign=middle;" parent="pP9tDQBffpjNEWrVpB4a-1" vertex="1">
          <mxGeometry x="80" y="874" width="120" height="45" as="geometry" />
        </mxCell>
        <mxCell id="pP9tDQBffpjNEWrVpB4a-52" value="Socail Media" style="rounded=0;whiteSpace=wrap;html=1;verticalAlign=middle;" parent="pP9tDQBffpjNEWrVpB4a-1" vertex="1">
          <mxGeometry x="80" y="230" width="120" height="45" as="geometry" />
        </mxCell>
        <mxCell id="pP9tDQBffpjNEWrVpB4a-56" value="&lt;blockquote style=&quot;margin: 0 0 0 40px; border: none; padding: 0px;&quot;&gt;&lt;div&gt;Data&amp;nbsp;&lt;span style=&quot;background-color: initial;&quot;&gt;Sources&lt;/span&gt;&lt;/div&gt;&lt;/blockquote&gt;" style="text;html=1;strokeColor=none;fillColor=none;align=center;verticalAlign=middle;whiteSpace=wrap;rounded=0;fontStyle=1" parent="pP9tDQBffpjNEWrVpB4a-1" vertex="1">
          <mxGeometry x="10" y="110" width="220" height="50" as="geometry" />
        </mxCell>
        <mxCell id="CB3KhWGAKuc9QO8IeBm4-0" value="AWS Lake Formation" style="sketch=0;points=[[0,0,0],[0.25,0,0],[0.5,0,0],[0.75,0,0],[1,0,0],[0,1,0],[0.25,1,0],[0.5,1,0],[0.75,1,0],[1,1,0],[0,0.25,0],[0,0.5,0],[0,0.75,0],[1,0.25,0],[1,0.5,0],[1,0.75,0]];outlineConnect=0;fontColor=#232F3E;fillColor=#8C4FFF;strokeColor=#ffffff;dashed=0;verticalLabelPosition=bottom;verticalAlign=top;align=center;html=1;fontSize=12;fontStyle=0;aspect=fixed;shape=mxgraph.aws4.resourceIcon;resIcon=mxgraph.aws4.lake_formation;" parent="pP9tDQBffpjNEWrVpB4a-1" vertex="1">
          <mxGeometry x="1001" y="960" width="39" height="39" as="geometry" />
        </mxCell>
        <mxCell id="CB3KhWGAKuc9QO8IeBm4-13" value="" style="rounded=0;whiteSpace=wrap;html=1;verticalAlign=middle;fillColor=none;" parent="pP9tDQBffpjNEWrVpB4a-1" vertex="1">
          <mxGeometry x="996" y="800" width="345" height="107.5" as="geometry" />
        </mxCell>
        <mxCell id="CB3KhWGAKuc9QO8IeBm4-15" value="Glue Crawler" style="sketch=0;outlineConnect=0;fontColor=#232F3E;gradientColor=none;fillColor=#8C4FFF;strokeColor=none;dashed=0;verticalLabelPosition=bottom;verticalAlign=top;align=center;html=1;fontSize=12;fontStyle=0;aspect=fixed;pointerEvents=1;shape=mxgraph.aws4.glue_crawlers;" parent="pP9tDQBffpjNEWrVpB4a-1" vertex="1">
          <mxGeometry x="1137" y="825.5" width="52" height="52" as="geometry" />
        </mxCell>
        <mxCell id="CB3KhWGAKuc9QO8IeBm4-17" value="Data Quality" style="sketch=0;outlineConnect=0;fontColor=#232F3E;gradientColor=none;fillColor=#8C4FFF;strokeColor=none;dashed=0;verticalLabelPosition=bottom;verticalAlign=top;align=center;html=1;fontSize=12;fontStyle=0;aspect=fixed;pointerEvents=1;shape=mxgraph.aws4.aws_glue_data_quality;" parent="pP9tDQBffpjNEWrVpB4a-1" vertex="1">
          <mxGeometry x="1238" y="825" width="53" height="53" as="geometry" />
        </mxCell>
        <mxCell id="CB3KhWGAKuc9QO8IeBm4-18" value="Cloudwatch" style="sketch=0;points=[[0,0,0],[0.25,0,0],[0.5,0,0],[0.75,0,0],[1,0,0],[0,1,0],[0.25,1,0],[0.5,1,0],[0.75,1,0],[1,1,0],[0,0.25,0],[0,0.5,0],[0,0.75,0],[1,0.25,0],[1,0.5,0],[1,0.75,0]];points=[[0,0,0],[0.25,0,0],[0.5,0,0],[0.75,0,0],[1,0,0],[0,1,0],[0.25,1,0],[0.5,1,0],[0.75,1,0],[1,1,0],[0,0.25,0],[0,0.5,0],[0,0.75,0],[1,0.25,0],[1,0.5,0],[1,0.75,0]];outlineConnect=0;fontColor=#232F3E;fillColor=#E7157B;strokeColor=#ffffff;dashed=0;verticalLabelPosition=bottom;verticalAlign=top;align=center;html=1;fontSize=12;fontStyle=0;aspect=fixed;shape=mxgraph.aws4.resourceIcon;resIcon=mxgraph.aws4.cloudwatch_2;" parent="pP9tDQBffpjNEWrVpB4a-1" vertex="1">
          <mxGeometry x="1150" y="441.5" width="50" height="50" as="geometry" />
        </mxCell>
        <mxCell id="9jR3WkWrVup011KDL3n--14" value="S3&amp;nbsp;Raw &lt;br&gt;Data Batch" style="sketch=0;points=[[0,0,0],[0.25,0,0],[0.5,0,0],[0.75,0,0],[1,0,0],[0,1,0],[0.25,1,0],[0.5,1,0],[0.75,1,0],[1,1,0],[0,0.25,0],[0,0.5,0],[0,0.75,0],[1,0.25,0],[1,0.5,0],[1,0.75,0]];outlineConnect=0;fontColor=#232F3E;fillColor=#8c4fff;strokeColor=#ffffff;dashed=0;verticalLabelPosition=bottom;verticalAlign=top;align=center;html=1;fontSize=12;fontStyle=0;aspect=fixed;shape=mxgraph.aws4.resourceIcon;resIcon=mxgraph.aws4.s3;" parent="pP9tDQBffpjNEWrVpB4a-1" vertex="1">
          <mxGeometry x="540" y="400" width="57.5" height="57.5" as="geometry" />
        </mxCell>
        <mxCell id="9jR3WkWrVup011KDL3n--15" value="Translate" style="sketch=0;points=[[0,0,0],[0.25,0,0],[0.5,0,0],[0.75,0,0],[1,0,0],[0,1,0],[0.25,1,0],[0.5,1,0],[0.75,1,0],[1,1,0],[0,0.25,0],[0,0.5,0],[0,0.75,0],[1,0.25,0],[1,0.5,0],[1,0.75,0]];outlineConnect=0;fontColor=#232F3E;fillColor=#01A88D;strokeColor=#ffffff;dashed=0;verticalLabelPosition=bottom;verticalAlign=top;align=center;html=1;fontSize=12;fontStyle=0;aspect=fixed;shape=mxgraph.aws4.resourceIcon;resIcon=mxgraph.aws4.translate;" parent="pP9tDQBffpjNEWrVpB4a-1" vertex="1">
          <mxGeometry x="540" y="623" width="57" height="57" as="geometry" />
        </mxCell>
        <mxCell id="9jR3WkWrVup011KDL3n--16" value="Comprehend" style="sketch=0;points=[[0,0,0],[0.25,0,0],[0.5,0,0],[0.75,0,0],[1,0,0],[0,1,0],[0.25,1,0],[0.5,1,0],[0.75,1,0],[1,1,0],[0,0.25,0],[0,0.5,0],[0,0.75,0],[1,0.25,0],[1,0.5,0],[1,0.75,0]];outlineConnect=0;fontColor=#232F3E;fillColor=#01A88D;strokeColor=#ffffff;dashed=0;verticalLabelPosition=bottom;verticalAlign=top;align=center;html=1;fontSize=12;fontStyle=0;aspect=fixed;shape=mxgraph.aws4.resourceIcon;resIcon=mxgraph.aws4.comprehend;" parent="pP9tDQBffpjNEWrVpB4a-1" vertex="1">
          <mxGeometry x="643.5" y="623" width="54" height="54" as="geometry" />
        </mxCell>
        <mxCell id="9jR3WkWrVup011KDL3n--1" value="Enity resolution" style="shape=image;verticalLabelPosition=bottom;labelBackgroundColor=default;verticalAlign=top;aspect=fixed;imageAspect=0;image=data:image/png,iVBORw0KGgoAAAANSUhEUgAAAD8AAAA9CAYAAAAal7HUAAAAAXNSR0IArs4c6QAAAARnQU1BAACxjwv8YQUAAAAJcEhZcwAADsMAAA7DAcdvqGQAAAXhSURBVGhD7ZptiBVVGMef+qAZRbJELNsricpmmmxR5EspQlaQCWUYG/RC9OKnyBDsQ0gfCiSjT0YvZERL1mKYUlIgWiq1rW2i1bJaUYG2FK1mkumXOr/7nMM9O8zcOzP3zBjM/cH1zMy9M3P+zznPc57zrGeNjIz8KxWlJn7rqmn2tBrcsfZgrT279m9FaYuvKm3xVaUtvqpUWnzQJGfKfJGe20U6r9Tz0R9Fhj4S+WGXnocg7h173hU5sk/P0xA8yelZJrJ0pchl3SKnT+qHY67xXQj8d5w4Wn/HvWtErjIGyUoQ8ZM6RObebTpzSmTbqyKvPKCfzev0Gt912JHKC/cv7NXn8dwNj+k7dvTp94vu135kIci0Z0To2FefiOxcby9aFqwQufYWkW92i3w/YC/mYMZCkak9Knao3160LH5K5Op5avjvjJs1w037IOKdQEYk6t/4KFM1FO+YKR71b/eOOOPHEdTnT/2t7QWd2vq4a78Ma+fyfk4c0+dM7tLW59KZ2h7/Xdu0BBl5/PHBF9UfNz1fH5mu2SJ3rRaZMFHk0JDIlmf1elp47qxbRWberM8AjNBvnjNmojy4d8Drj4ucHNPjRgSd9uCmPjDKQCT2SWsABF23RH0cMOrP3+ox1zhniQP3jrhYkERw8cByM/8ekfMm6zmjNPih6eihdDOAwNk916zhV+g59+/fKbJvi44o0XzFG/qdg9/sei9doHMUIr4RSS6AoNlmlGctqBtt9CeRr42fRwW52UUMSBPYkihdPEQNAJfPqPsz1/aaUY7L1jDSwy/rcVrfTiJotE8LovZu02N81/k0I7n+IZ0NSWnqDcvVSAc+bU24TyniGTX8+dE3ReYstRctBDKmcCNB3E/EJ9ANbLQXA1CoeJYqsi+mKxkgPs3UJhkiWUEMo7/kGXtDAt2LdNQPDoYbdcjs8wSd6dfXgxPL2vbX6usukHG5dBQQSccH3x//O2LAYpOjd5hEqNEqwIzhfRueHH9/XnIFvN6XdBlCzNiv2iE+nJPcdE4VucaMEmLALXXD25NHjCm9/LlkA7h9QyPjZCWzeNeJsVGRjU/XxdxodlZRP2ap+mJT+n18IwOEHnXIHO1JPuCDteNH8XPTOcQCLkAn+57IVsDgeRgUw/oxAIMjHIOEEu6TOeDFdeKwGrJWtcnbyTgDOIOz9hdBZvFxRYmLrdccPaxtXqIGIL4wq5LW/lZJLX54j7Z3rlIfdeDzrpMhpqYzAEEUKFUVRWrx7JjwPYISmwsiv5+0hOxkl5fysmtrlgfkJdO0Jwq7wkJtyftHz5mmITtJdRYoS0WDIDDzyCX4tEKQjU2ztToLrjCCgSlQRp9N1Yh6nQP3IN/PsssLurFJWqryMO8+bUmOIPpshGMYZhxFUWCbSxqdlSDiIYQBGHXuRZxfleHZn9kSNc9/y+QSjPTHL+j2lt9jlLiVqBHBxEOrBoiOus9FU7QdsFUdB8fu99Nv0jYtQcVDXgPg23Gj7ph4rrbHjmjr86d5F7jfpCW4eMhjAIoVMPKltlFcWXraHG192EHCbzbNTksh4iGLARj1RsUKCqP8yQsIbiRWwH1ssd2MyVLEhMLEQ1oDJJWoCGDLzFb5tkf0e5Y6DERitXKzJlsYg2tbTdKVlULFQzMDJI06o9trhJM8cS+VH/KHvtW6xJFO82HJI+Lnyf9Lq976yQpb3+N/iFx4iX5Htoggli6/uoNBKHiybQ5JrkpOqyCMv6XHEc3e4spjoQia4aWFMhcwjSlirjO+W6vQWJdw2Rs5fb+Z3kUI9ylVPPU9oBrkKj0IJCYwxfmQvWWN2nkpVTx+HLfvJyhSECWi+9G+aEoVz8hSk4tjwjn2oERKFc9fZxDvkhQHhUo3K8qkVPG739bRJ0mhEkR2xrpPSRx2BF7SmlGqeHydP24Q0Vnbyc5cahr3f22KptR13oc1f9L5JsD9Vb7oM7LO+yCY5a5s4T5nTPz/gbb4qtIWX1Xa4qtKLcmxxxVD5D9QCvZcV/kWrwAAAABJRU5ErkJggg==;" parent="pP9tDQBffpjNEWrVpB4a-1" vertex="1">
          <mxGeometry x="540" y="277.5" width="63" height="61" as="geometry" />
        </mxCell>
        <mxCell id="9jR3WkWrVup011KDL3n--2" value="EMR" style="sketch=0;points=[[0,0,0],[0.25,0,0],[0.5,0,0],[0.75,0,0],[1,0,0],[0,1,0],[0.25,1,0],[0.5,1,0],[0.75,1,0],[1,1,0],[0,0.25,0],[0,0.5,0],[0,0.75,0],[1,0.25,0],[1,0.5,0],[1,0.75,0]];outlineConnect=0;fontColor=#232F3E;fillColor=#8C4FFF;strokeColor=#ffffff;dashed=0;verticalLabelPosition=bottom;verticalAlign=top;align=center;html=1;fontSize=12;fontStyle=0;aspect=fixed;shape=mxgraph.aws4.resourceIcon;resIcon=mxgraph.aws4.emr;" parent="pP9tDQBffpjNEWrVpB4a-1" vertex="1">
          <mxGeometry x="650" y="279.75" width="60" height="60" as="geometry" />
        </mxCell>
        <mxCell id="GLnKqgIVexSv4CfLuLsM-4" value="Redshift (ODS)" style="sketch=0;points=[[0,0,0],[0.25,0,0],[0.5,0,0],[0.75,0,0],[1,0,0],[0,1,0],[0.25,1,0],[0.5,1,0],[0.75,1,0],[1,1,0],[0,0.25,0],[0,0.5,0],[0,0.75,0],[1,0.25,0],[1,0.5,0],[1,0.75,0]];outlineConnect=0;fontColor=#232F3E;fillColor=#8C4FFF;strokeColor=#ffffff;dashed=0;verticalLabelPosition=bottom;verticalAlign=top;align=center;html=1;fontSize=12;fontStyle=0;aspect=fixed;shape=mxgraph.aws4.resourceIcon;resIcon=mxgraph.aws4.redshift;" parent="pP9tDQBffpjNEWrVpB4a-1" vertex="1">
          <mxGeometry x="540" y="521.5" width="55" height="55" as="geometry" />
        </mxCell>
        <mxCell id="GLnKqgIVexSv4CfLuLsM-5" value="Lamda" style="outlineConnect=0;dashed=0;verticalLabelPosition=bottom;verticalAlign=top;align=center;html=1;shape=mxgraph.aws3.lambda_function;fillColor=#F58534;gradientColor=none;" parent="pP9tDQBffpjNEWrVpB4a-1" vertex="1">
          <mxGeometry x="636.5" y="515" width="61" height="60" as="geometry" />
        </mxCell>
        <mxCell id="GLnKqgIVexSv4CfLuLsM-8" value="S3" style="sketch=0;points=[[0,0,0],[0.25,0,0],[0.5,0,0],[0.75,0,0],[1,0,0],[0,1,0],[0.25,1,0],[0.5,1,0],[0.75,1,0],[1,1,0],[0,0.25,0],[0,0.5,0],[0,0.75,0],[1,0.25,0],[1,0.5,0],[1,0.75,0]];outlineConnect=0;fontColor=#232F3E;fillColor=#7AA116;strokeColor=#ffffff;dashed=0;verticalLabelPosition=bottom;verticalAlign=top;align=center;html=1;fontSize=12;fontStyle=0;aspect=fixed;shape=mxgraph.aws4.resourceIcon;resIcon=mxgraph.aws4.s3;" parent="pP9tDQBffpjNEWrVpB4a-1" vertex="1">
          <mxGeometry x="740" y="620" width="60" height="60" as="geometry" />
        </mxCell>
        <mxCell id="Rts7eVzzd_GZlkzJQfAq-11" value="&lt;span style=&quot;color: rgb(0, 0, 0); font-family: Helvetica; font-size: 12px; font-style: normal; font-variant-ligatures: normal; font-variant-caps: normal; font-weight: 400; letter-spacing: normal; orphans: 2; text-align: center; text-indent: 0px; text-transform: none; widows: 2; word-spacing: 0px; -webkit-text-stroke-width: 0px; background-color: rgb(251, 251, 251); text-decoration-thickness: initial; text-decoration-style: initial; text-decoration-color: initial; float: none; display: inline !important;&quot;&gt;Producer 2 Account&lt;/span&gt;" style="rounded=0;whiteSpace=wrap;html=1;verticalAlign=middle;fillColor=none;" parent="pP9tDQBffpjNEWrVpB4a-1" vertex="1">
          <mxGeometry x="520" y="745" width="310" height="65" as="geometry" />
        </mxCell>
        <mxCell id="9jR3WkWrVup011KDL3n--6" value="" style="rounded=0;whiteSpace=wrap;html=1;verticalAlign=middle;fillColor=none;movable=1;resizable=1;rotatable=1;deletable=1;editable=1;locked=0;connectable=1;" parent="pP9tDQBffpjNEWrVpB4a-1" vertex="1">
          <mxGeometry x="996" y="560" width="350" height="217" as="geometry" />
        </mxCell>
        <mxCell id="CB3KhWGAKuc9QO8IeBm4-14" value="Data Catalog" style="sketch=0;outlineConnect=0;fontColor=#232F3E;gradientColor=none;fillColor=#8C4FFF;strokeColor=none;dashed=0;verticalLabelPosition=bottom;verticalAlign=top;align=center;html=1;fontSize=12;fontStyle=0;aspect=fixed;pointerEvents=1;shape=mxgraph.aws4.glue_data_catalog;" parent="pP9tDQBffpjNEWrVpB4a-1" vertex="1">
          <mxGeometry x="1031" y="290.96" width="40.23" height="43.58" as="geometry" />
        </mxCell>
        <mxCell id="Rts7eVzzd_GZlkzJQfAq-23" value="" style="group" parent="pP9tDQBffpjNEWrVpB4a-1" vertex="1" connectable="0">
          <mxGeometry x="370" y="380" width="110" height="527.5" as="geometry" />
        </mxCell>
        <mxCell id="Rts7eVzzd_GZlkzJQfAq-21" value="" style="group;dashed=1;" parent="Rts7eVzzd_GZlkzJQfAq-23" vertex="1" connectable="0">
          <mxGeometry width="110" height="527.5" as="geometry" />
        </mxCell>
        <mxCell id="9jR3WkWrVup011KDL3n--0" value="Kinesis" style="outlineConnect=0;dashed=0;verticalLabelPosition=bottom;verticalAlign=top;align=center;html=1;shape=mxgraph.aws3.kinesis;fillColor=#8c4fff;gradientColor=none;" parent="Rts7eVzzd_GZlkzJQfAq-21" vertex="1">
          <mxGeometry x="24.5" y="293.7769230769231" width="60" height="70.33333333333333" as="geometry" />
        </mxCell>
        <mxCell id="GLnKqgIVexSv4CfLuLsM-6" value="" style="rounded=0;whiteSpace=wrap;html=1;verticalAlign=middle;fillColor=none;" parent="Rts7eVzzd_GZlkzJQfAq-21" vertex="1">
          <mxGeometry y="29.756410256410255" width="110" height="497.7435897435897" as="geometry" />
        </mxCell>
        <mxCell id="Rts7eVzzd_GZlkzJQfAq-13" value="Transfer Family" style="sketch=0;points=[[0,0,0],[0.25,0,0],[0.5,0,0],[0.75,0,0],[1,0,0],[0,1,0],[0.25,1,0],[0.5,1,0],[0.75,1,0],[1,1,0],[0,0.25,0],[0,0.5,0],[0,0.75,0],[1,0.25,0],[1,0.5,0],[1,0.75,0]];outlineConnect=0;fontColor=#232F3E;fillColor=#01A88D;strokeColor=#ffffff;dashed=0;verticalLabelPosition=bottom;verticalAlign=top;align=center;html=1;fontSize=12;fontStyle=0;aspect=fixed;shape=mxgraph.aws4.resourceIcon;resIcon=mxgraph.aws4.migration_and_transfer;" parent="Rts7eVzzd_GZlkzJQfAq-21" vertex="1">
          <mxGeometry x="24.5" y="56.80769230769231" width="65" height="65" as="geometry" />
        </mxCell>
        <mxCell id="Rts7eVzzd_GZlkzJQfAq-17" value="AWS Data&lt;br/&gt;Exchange" style="sketch=0;points=[[0,0,0],[0.25,0,0],[0.5,0,0],[0.75,0,0],[1,0,0],[0,1,0],[0.25,1,0],[0.5,1,0],[0.75,1,0],[1,1,0],[0,0.25,0],[0,0.5,0],[0,0.75,0],[1,0.25,0],[1,0.5,0],[1,0.75,0]];outlineConnect=0;fontColor=#232F3E;fillColor=#8C4FFF;strokeColor=#ffffff;dashed=0;verticalLabelPosition=bottom;verticalAlign=top;align=center;html=1;fontSize=12;fontStyle=0;aspect=fixed;shape=mxgraph.aws4.resourceIcon;resIcon=mxgraph.aws4.data_exchange;" parent="Rts7eVzzd_GZlkzJQfAq-21" vertex="1">
          <mxGeometry x="20.5" y="411.1794871794871" width="67.5" height="67.5" as="geometry" />
        </mxCell>
        <mxCell id="Rts7eVzzd_GZlkzJQfAq-12" value="Data ingestion and integratiom" style="text;html=1;strokeColor=none;fillColor=none;align=center;verticalAlign=middle;whiteSpace=wrap;rounded=0;fontStyle=1" parent="Rts7eVzzd_GZlkzJQfAq-21" vertex="1">
          <mxGeometry x="7.25" y="-9.99564102564102" width="94" height="32.46153846153846" as="geometry" />
        </mxCell>
        <mxCell id="GLnKqgIVexSv4CfLuLsM-3" value="Eventbridge" style="sketch=0;points=[[0,0,0],[0.25,0,0],[0.5,0,0],[0.75,0,0],[1,0,0],[0,1,0],[0.25,1,0],[0.5,1,0],[0.75,1,0],[1,1,0],[0,0.25,0],[0,0.5,0],[0,0.75,0],[1,0.25,0],[1,0.5,0],[1,0.75,0]];outlineConnect=0;fontColor=#232F3E;fillColor=#E7157B;strokeColor=#ffffff;dashed=0;verticalLabelPosition=bottom;verticalAlign=top;align=center;html=1;fontSize=12;fontStyle=0;aspect=fixed;shape=mxgraph.aws4.resourceIcon;resIcon=mxgraph.aws4.eventbridge;" parent="Rts7eVzzd_GZlkzJQfAq-23" vertex="1">
          <mxGeometry x="24.5" y="174.75128205128203" width="66" height="66" as="geometry" />
        </mxCell>
        <mxCell id="Rts7eVzzd_GZlkzJQfAq-24" value="S3 Raw Data&lt;br&gt;Real Time" style="sketch=0;points=[[0,0,0],[0.25,0,0],[0.5,0,0],[0.75,0,0],[1,0,0],[0,1,0],[0.25,1,0],[0.5,1,0],[0.75,1,0],[1,1,0],[0,0.25,0],[0,0.5,0],[0,0.75,0],[1,0.25,0],[1,0.5,0],[1,0.75,0]];outlineConnect=0;fontColor=#232F3E;fillColor=#8c4fff;strokeColor=#ffffff;dashed=0;verticalLabelPosition=bottom;verticalAlign=top;align=center;html=1;fontSize=12;fontStyle=0;aspect=fixed;shape=mxgraph.aws4.resourceIcon;resIcon=mxgraph.aws4.s3;" parent="pP9tDQBffpjNEWrVpB4a-1" vertex="1">
          <mxGeometry x="640" y="400" width="57.5" height="57.5" as="geometry" />
        </mxCell>
        <mxCell id="Rts7eVzzd_GZlkzJQfAq-31" value="S3 Processed&lt;br&gt;Data Sets" style="sketch=0;points=[[0,0,0],[0.25,0,0],[0.5,0,0],[0.75,0,0],[1,0,0],[0,1,0],[0.25,1,0],[0.5,1,0],[0.75,1,0],[1,1,0],[0,0.25,0],[0,0.5,0],[0,0.75,0],[1,0.25,0],[1,0.5,0],[1,0.75,0]];outlineConnect=0;fontColor=#232F3E;fillColor=#8c4fff;strokeColor=#ffffff;dashed=0;verticalLabelPosition=bottom;verticalAlign=top;align=center;html=1;fontSize=12;fontStyle=0;aspect=fixed;shape=mxgraph.aws4.resourceIcon;resIcon=mxgraph.aws4.s3;" parent="pP9tDQBffpjNEWrVpB4a-1" vertex="1">
          <mxGeometry x="740" y="400" width="57.5" height="57.5" as="geometry" />
        </mxCell>
        <mxCell id="Rts7eVzzd_GZlkzJQfAq-33" value="Producer Domain Accounts" style="text;html=1;strokeColor=none;fillColor=none;align=center;verticalAlign=middle;whiteSpace=wrap;rounded=0;fontStyle=1" parent="pP9tDQBffpjNEWrVpB4a-1" vertex="1">
          <mxGeometry x="581.5" y="180" width="174.5" height="30" as="geometry" />
        </mxCell>
        <mxCell id="Rts7eVzzd_GZlkzJQfAq-34" value="Producer 1 Account –&lt;br&gt;Loyalty Domain" style="text;html=1;strokeColor=none;fillColor=none;align=center;verticalAlign=middle;whiteSpace=wrap;rounded=0;" parent="pP9tDQBffpjNEWrVpB4a-1" vertex="1">
          <mxGeometry x="560" y="230" width="200" height="30" as="geometry" />
        </mxCell>
        <mxCell id="Rts7eVzzd_GZlkzJQfAq-36" value="&lt;span style=&quot;color: rgb(0, 0, 0); font-family: Helvetica; font-size: 12px; font-style: normal; font-variant-ligatures: normal; font-variant-caps: normal; font-weight: 400; letter-spacing: normal; orphans: 2; text-align: center; text-indent: 0px; text-transform: none; widows: 2; word-spacing: 0px; -webkit-text-stroke-width: 0px; background-color: rgb(251, 251, 251); text-decoration-thickness: initial; text-decoration-style: initial; text-decoration-color: initial; float: none; display: inline !important;&quot;&gt;Producer 3 Account&lt;/span&gt;" style="rounded=0;whiteSpace=wrap;html=1;verticalAlign=middle;fillColor=none;" parent="pP9tDQBffpjNEWrVpB4a-1" vertex="1">
          <mxGeometry x="520" y="830" width="310" height="65" as="geometry" />
        </mxCell>
        <mxCell id="Rts7eVzzd_GZlkzJQfAq-37" value="&lt;span style=&quot;color: rgb(0, 0, 0); font-family: Helvetica; font-size: 12px; font-style: normal; font-variant-ligatures: normal; font-variant-caps: normal; font-weight: 400; letter-spacing: normal; orphans: 2; text-align: center; text-indent: 0px; text-transform: none; widows: 2; word-spacing: 0px; -webkit-text-stroke-width: 0px; background-color: rgb(251, 251, 251); text-decoration-thickness: initial; text-decoration-style: initial; text-decoration-color: initial; float: none; display: inline !important;&quot;&gt;Producer n Accounts -&amp;nbsp;Other&lt;br/&gt;Domains such as Digital,&lt;br/&gt;Revenue, and HR&lt;br/&gt;&lt;/span&gt;" style="rounded=0;whiteSpace=wrap;html=1;verticalAlign=middle;fillColor=none;" parent="pP9tDQBffpjNEWrVpB4a-1" vertex="1">
          <mxGeometry x="520" y="920" width="310" height="65" as="geometry" />
        </mxCell>
        <mxCell id="Rts7eVzzd_GZlkzJQfAq-38" style="edgeStyle=orthogonalEdgeStyle;rounded=0;orthogonalLoop=1;jettySize=auto;html=1;entryX=0.017;entryY=0.464;entryDx=0;entryDy=0;entryPerimeter=0;" parent="pP9tDQBffpjNEWrVpB4a-1" source="GLnKqgIVexSv4CfLuLsM-6" target="pP9tDQBffpjNEWrVpB4a-22" edge="1">
          <mxGeometry relative="1" as="geometry" />
        </mxCell>
        <mxCell id="Rts7eVzzd_GZlkzJQfAq-39" style="edgeStyle=orthogonalEdgeStyle;rounded=0;orthogonalLoop=1;jettySize=auto;html=1;entryX=0;entryY=0.5;entryDx=0;entryDy=0;" parent="pP9tDQBffpjNEWrVpB4a-1" source="GLnKqgIVexSv4CfLuLsM-6" target="Rts7eVzzd_GZlkzJQfAq-11" edge="1">
          <mxGeometry relative="1" as="geometry" />
        </mxCell>
        <mxCell id="Rts7eVzzd_GZlkzJQfAq-40" style="edgeStyle=orthogonalEdgeStyle;rounded=0;orthogonalLoop=1;jettySize=auto;html=1;entryX=0;entryY=0.5;entryDx=0;entryDy=0;" parent="pP9tDQBffpjNEWrVpB4a-1" source="GLnKqgIVexSv4CfLuLsM-6" target="Rts7eVzzd_GZlkzJQfAq-36" edge="1">
          <mxGeometry relative="1" as="geometry" />
        </mxCell>
        <mxCell id="Rts7eVzzd_GZlkzJQfAq-41" style="edgeStyle=orthogonalEdgeStyle;rounded=0;orthogonalLoop=1;jettySize=auto;html=1;entryX=0;entryY=0.5;entryDx=0;entryDy=0;" parent="pP9tDQBffpjNEWrVpB4a-1" source="GLnKqgIVexSv4CfLuLsM-6" target="Rts7eVzzd_GZlkzJQfAq-37" edge="1">
          <mxGeometry relative="1" as="geometry" />
        </mxCell>
        <mxCell id="lOTJQNplEwWjjSjJ1z2Q-3" value="&lt;span&gt;Metadata&lt;/span&gt;" style="text;html=1;strokeColor=none;fillColor=none;align=center;verticalAlign=middle;whiteSpace=wrap;rounded=0;fontStyle=1" parent="pP9tDQBffpjNEWrVpB4a-1" vertex="1">
          <mxGeometry x="1111" y="265.5" width="120" height="30" as="geometry" />
        </mxCell>
        <mxCell id="lOTJQNplEwWjjSjJ1z2Q-5" value="Neptune" style="sketch=0;points=[[0,0,0],[0.25,0,0],[0.5,0,0],[0.75,0,0],[1,0,0],[0,1,0],[0.25,1,0],[0.5,1,0],[0.75,1,0],[1,1,0],[0,0.25,0],[0,0.5,0],[0,0.75,0],[1,0.25,0],[1,0.5,0],[1,0.75,0]];outlineConnect=0;fontColor=#232F3E;fillColor=#C925D1;strokeColor=#ffffff;dashed=0;verticalLabelPosition=bottom;verticalAlign=top;align=center;html=1;fontSize=12;fontStyle=0;aspect=fixed;shape=mxgraph.aws4.resourceIcon;resIcon=mxgraph.aws4.neptune;" parent="pP9tDQBffpjNEWrVpB4a-1" vertex="1">
          <mxGeometry x="1146" y="292.75" width="40" height="40" as="geometry" />
        </mxCell>
        <mxCell id="lOTJQNplEwWjjSjJ1z2Q-6" value="Dynamo DB" style="outlineConnect=0;dashed=0;verticalLabelPosition=bottom;verticalAlign=top;align=center;html=1;shape=mxgraph.aws3.dynamo_db;fillColor=#2E73B8;gradientColor=none;" parent="pP9tDQBffpjNEWrVpB4a-1" vertex="1">
          <mxGeometry x="1261" y="285.75" width="40" height="54" as="geometry" />
        </mxCell>
        <mxCell id="lOTJQNplEwWjjSjJ1z2Q-10" value="&lt;span&gt;Governance&lt;/span&gt;" style="text;html=1;strokeColor=none;fillColor=none;align=center;verticalAlign=middle;whiteSpace=wrap;rounded=0;fontStyle=1" parent="pP9tDQBffpjNEWrVpB4a-1" vertex="1">
          <mxGeometry x="1111" y="410.5" width="120" height="30" as="geometry" />
        </mxCell>
        <mxCell id="lOTJQNplEwWjjSjJ1z2Q-11" value="Cloudtrail" style="sketch=0;points=[[0,0,0],[0.25,0,0],[0.5,0,0],[0.75,0,0],[1,0,0],[0,1,0],[0.25,1,0],[0.5,1,0],[0.75,1,0],[1,1,0],[0,0.25,0],[0,0.5,0],[0,0.75,0],[1,0.25,0],[1,0.5,0],[1,0.75,0]];points=[[0,0,0],[0.25,0,0],[0.5,0,0],[0.75,0,0],[1,0,0],[0,1,0],[0.25,1,0],[0.5,1,0],[0.75,1,0],[1,1,0],[0,0.25,0],[0,0.5,0],[0,0.75,0],[1,0.25,0],[1,0.5,0],[1,0.75,0]];outlineConnect=0;fontColor=#232F3E;fillColor=#E7157B;strokeColor=#ffffff;dashed=0;verticalLabelPosition=bottom;verticalAlign=top;align=center;html=1;fontSize=12;fontStyle=0;aspect=fixed;shape=mxgraph.aws4.resourceIcon;resIcon=mxgraph.aws4.cloudtrail;" parent="pP9tDQBffpjNEWrVpB4a-1" vertex="1">
          <mxGeometry x="1019.73" y="440.75" width="51.5" height="51.5" as="geometry" />
        </mxCell>
        <mxCell id="lOTJQNplEwWjjSjJ1z2Q-12" value="&lt;div&gt;Cloud&amp;nbsp;&lt;span style=&quot;background-color: initial;&quot;&gt;Formation&lt;/span&gt;&lt;/div&gt;" style="sketch=0;points=[[0,0,0],[0.25,0,0],[0.5,0,0],[0.75,0,0],[1,0,0],[0,1,0],[0.25,1,0],[0.5,1,0],[0.75,1,0],[1,1,0],[0,0.25,0],[0,0.5,0],[0,0.75,0],[1,0.25,0],[1,0.5,0],[1,0.75,0]];points=[[0,0,0],[0.25,0,0],[0.5,0,0],[0.75,0,0],[1,0,0],[0,1,0],[0.25,1,0],[0.5,1,0],[0.75,1,0],[1,1,0],[0,0.25,0],[0,0.5,0],[0,0.75,0],[1,0.25,0],[1,0.5,0],[1,0.75,0]];outlineConnect=0;fontColor=#232F3E;fillColor=#E7157B;strokeColor=#ffffff;dashed=0;verticalLabelPosition=bottom;verticalAlign=top;align=center;html=1;fontSize=12;fontStyle=0;aspect=fixed;shape=mxgraph.aws4.resourceIcon;resIcon=mxgraph.aws4.cloudformation;" parent="pP9tDQBffpjNEWrVpB4a-1" vertex="1">
          <mxGeometry x="1267.5" y="443" width="47" height="47" as="geometry" />
        </mxCell>
        <mxCell id="lOTJQNplEwWjjSjJ1z2Q-13" value="&lt;div&gt;Security &amp;amp; Access&lt;/div&gt;&lt;div&gt;Management Services&lt;/div&gt;" style="text;html=1;strokeColor=none;fillColor=none;align=center;verticalAlign=middle;whiteSpace=wrap;rounded=0;fontStyle=1" parent="pP9tDQBffpjNEWrVpB4a-1" vertex="1">
          <mxGeometry x="1031" y="570" width="270" height="30" as="geometry" />
        </mxCell>
        <mxCell id="lOTJQNplEwWjjSjJ1z2Q-14" value="IAM" style="outlineConnect=0;dashed=0;verticalLabelPosition=bottom;verticalAlign=top;align=center;html=1;shape=mxgraph.aws3.iam;fillColor=#DD344C;gradientColor=none;" parent="pP9tDQBffpjNEWrVpB4a-1" vertex="1">
          <mxGeometry x="1011.75" y="609" width="30" height="56" as="geometry" />
        </mxCell>
        <mxCell id="lOTJQNplEwWjjSjJ1z2Q-15" value="KMS" style="outlineConnect=0;dashed=0;verticalLabelPosition=bottom;verticalAlign=top;align=center;html=1;shape=mxgraph.aws3.kms;fillColor=#DD344C;gradientColor=none;" parent="pP9tDQBffpjNEWrVpB4a-1" vertex="1">
          <mxGeometry x="1087" y="608.5" width="48.5" height="57" as="geometry" />
        </mxCell>
        <mxCell id="lOTJQNplEwWjjSjJ1z2Q-32" value="" style="rounded=0;whiteSpace=wrap;html=1;fillColor=none;" parent="pP9tDQBffpjNEWrVpB4a-1" vertex="1">
          <mxGeometry x="1490.5" y="441.5" width="260" height="140" as="geometry" />
        </mxCell>
        <mxCell id="lOTJQNplEwWjjSjJ1z2Q-16" value="Secrets Manager" style="sketch=0;points=[[0,0,0],[0.25,0,0],[0.5,0,0],[0.75,0,0],[1,0,0],[0,1,0],[0.25,1,0],[0.5,1,0],[0.75,1,0],[1,1,0],[0,0.25,0],[0,0.5,0],[0,0.75,0],[1,0.25,0],[1,0.5,0],[1,0.75,0]];outlineConnect=0;fontColor=#232F3E;fillColor=#DD344C;strokeColor=#ffffff;dashed=0;verticalLabelPosition=bottom;verticalAlign=top;align=center;html=1;fontSize=12;fontStyle=0;aspect=fixed;shape=mxgraph.aws4.resourceIcon;resIcon=mxgraph.aws4.secrets_manager;" parent="pP9tDQBffpjNEWrVpB4a-1" vertex="1">
          <mxGeometry x="1169" y="609.5" width="55" height="55" as="geometry" />
        </mxCell>
        <mxCell id="lOTJQNplEwWjjSjJ1z2Q-19" value="AWS SSO" style="shape=image;verticalLabelPosition=bottom;labelBackgroundColor=default;verticalAlign=top;aspect=fixed;imageAspect=0;image=data:image/png,iVBORw0KGgoAAAANSUhEUgAAADUAAAA1CAYAAADh5qNwAAAV6UlEQVRoga2ae5BcV33nP+c+u/v2u3ueGs1Io8dIMnYMxl4sZxdvAlQ2uwWsl3JInNjY3sQEghyQwxpqa2OoimNjA0GxCgg2wWQJ8QILroU1OIQ4toAQOUa2Yz08es1oRvPs6e7bj9vd93H2j3u7p0eSZbZ2u2rm9D2/e+753d/39zy/Fuf3XCMB2ppACEFHUxBCIACBwAxAALqUIARSkQgBngoACU8gBEi0cF4xEELQ0lQEAk9XovUBAkG24yGEQHMDAKQRAwRSgBAQKIAQBKoM55VwX0Q4ipAxBETXojd2+VaQko0fGf2BjL73ZqREbpiN7pLROnmJ9VKuT/c/q/u/b806jb5n0feMaPfe1nLjlhFJC9ZZ6+cHISOJBAKB7AoKIQVIAYpAAtN5HwSk2yCEIO+Eosw5QShxTQBQi/kgBDNZP0TS8AHBWDVEFEEk7VBDhAjXRcChyPBaDaL5ECp8AVKsAyMkaD0JyBBiKUVPauELRBKU4UOkDNWvC3AoDHGBNEHKdSTEhYjI6FqEgpSiT/qI3nz3UkqBRCJE//6i9yzRDy4CzY8mAilDickAECjRtRJJRsjIdhQFKQVBKCquOh9C2Ips0jEkAihHyGiR/se88HrE9iMbCBBAJdaJEAnXqzIcNdndVwEBilQirsW6TQFSjYQaijxUP9lnU1ICkVS6o4zUsGc2kRpunJc9FJEyBA6B6KIVIScIURH99hWJut+0e0hGbAopevdtsJIL1nVR1nxCXQ4iWIm8lAhkZENKpA0KCIFHaAMdRQGgppkA1I3wOc1oNIJwt5wbIh73o/WRV3SMkEnD9y9ASumNCImCEgkg3M8TAiEkfmRzPfXtvpYM7RC58XXXPVWfRDd4kT4PJOXF1Ajyvsdt9FLr3nTjtv2ur+u4NrJ2oWfuW3Sx9xNIGX0LQq8lIpWKx5PMz88zMr4VJCzWa8QTCWwB8ViMqu0Ri8dYHE+xtLRE7qbrufHXfx3yGRonT/LSo99icWmRKx0LEATVOrlcjnK7SSKRwFpbJJVK4TSaIEBXBYoS6nUgA4QWIaSGauhFcTKMZxLDl+txChF66RNTb5ThTV1isK4+AtKGhW3baPEktm3jp1NkszmClMXsuXNMJTczsGkTfPxOyGRgMADHgYQBvg9lCaoKpYDjH/4wyUDBaTp0NFA1lV1Jg7m5OcZGx6jZNjKQpNNpFhYWGJmcpGXbCCHwlJBxTw3HQAnB0APZCwFhIAZxfOpNUgCBEoTxQIQphB4Ztt/2SVgWnhHHcRy8QpFWy+Gc02RoaIhrnz4IgPKdIzz5uc9x45EameFhiKlIx+HZrQJd19n7pQfBMHnlvj+jUqkwOd3ASiYpV09jmia6UIjH4/itNrV6jWImS6PRwIybIR9qKHRfJco4Qq0zPaUvxoUZhfoHheH7ehaGQBA6CiVSv5gZR9d1Gm2PIAioIymXy2zasYNrPvEJGsMBH/noR6j81VMMDg4ypRTplFYJfA9FUTiV8tF0nW9895tk222uuPX3GLcs7J+8TK1Wo+NWKRaL2JUKHdclputouoa1bRvLp05hJRIgIIjceKBEYxR81SiN67p4EIhjO94owxzLD72dCEctMsB2O2TOTaQwTZNaJkPTcfjlL34eYjEWbv1d2u02nvAplUpsndhMp91B2k1y2RyWMFhcXCQ5sgnf9zjuNnnLo49S//bfcOTFFxkvZHh1eprx4iDlcpmcquM4TWIdl6HBIYJGHQCNMAMRSmgesgeC2qd+4UspUkrW/yK/IunFnHgsRsw0icdD9StXyqiqArEYj73r3VSrVdbW1hgdHWVkZIRzs+ewbZtsJsPi0iILCwuk02ncTgfHaZHJZGgeOEDylltwHIeXX36Zvddfz86bb6ZYLBIEAclkilwuR73RoJ+/ft7Wed3Iv0RGgIh11ximIT0njEeAQMFuO3jSxxoo8pZ77wVNYdPO7Yy/dAJfBrTPn6FTWmN0YhBVUai2KhhFDT3QaCkOJxZn2bp1K3bK5+cr09xQn+Xtj38WAg1aLVANtr3ljdAJOPmpT3HihRcZGxtDqdVDO4lSn262r0SxqaOoF8epXkbQHzyiZE8CruuGJUmnA0KwVirB0BBf+I83Ua6UicViNJtNNE0jk0lTq9ksLi3SbrcIfB/P87FrNXbv3s3C4gLNZhPf9/kfn/kMeD4cPsxX7r6b/33PPXx3/35ot9h+992Mjo7SaDQ2hK+N7F0mTp3NtBAIrlr2Qqat0CJdJQHAm84kwDCwJwwk0NidgVibq2MxRKvNWiJGq5hHOVUjkUhgj+SIqwHLGR0QjCw0yeWHMQ7P8KZckelaEwC/scThu+7g2rkc76s5TOsltk5u5auf3MetjzzCkgVVr0OyEyPwAzoSdE0nXnIBib59mOXlJRJdlEQfUsi+iM96CdITRDIJrku73cau2mzZsgXicUzDoNFoYFdtbNtmYGoKwzCwqzYArVabSqWCYZrUazUS6QxBs0kQBOi6jmVZ1Gp1WFmBbI5cLsfcuTliZgxKJfbefz+maZJJZ2g0GhiGiZQSM5fDjCdYWlpCVdVL11NjVSV0jX4Yqd3Ii5he+E4/SiyTHclwekuKZlPlzg++H+wKk8dLpFJpllId3MBlvnaeqlvlDdYYQSsgqDewEikUH5r1JnJ4GKfpMHXOg3KF9C9lUdUiP93mYJg2xbrAGiyw69Uq/GQG9pqMXb2Hp549xM5rdmC+uAxI6o1VkoOD1GtlJkYmcFbWLrIpcWTrHgkw4IRl9nwmSki9WOj/M0M0Gg2u+/ajIWpGm8fv3sdtRwPKC+dZyQZksxkatRaGaaBXPDzPxR3MEYuZ1FbKZLNZpF1DEQoFdQCqVUrjksWFBdypMexajTEvVDNHV0mlUmz5ykNhZmLE4OwZvD/5Mn7go1Rs9HickuUzOzPL1sHhKBRFZT0C8dzOKyXAL58Lbep0MaynZrNh9v30ZpP7n3gCXqjww337SBgB588vcN3AAI1mEzcmUFUVPVCwLIuj586xY8cOlso25XKZf3nHVu65/35YCcCyQBXgupDQALBbMzz88EN88ocCNI3pQZXVlRXGUwMEgc8L+Q7vOngQij6f+/CHufvpOigKjck0VjJFubJ6UZwSz+54Q/hScx4CwaliqIYzGRMQbLv/bsZvvJEXb7qHUydPsWVzEcuyaJ94lUwmQ0v3cV2PwHGREoxigXwuxzM//Rm/8Tu3wh//Fhgmz3zoj1krrRFoglq9hppJkEwmuemLnwBNpz5xJ4ZpcnbcwvM8Up6KlJJXRgSJeJy3PvgRyOVg7z3g+ywkmiStJG7QuSj3U/INlXxT5XRW4VRO4VRWcCormFyDyTUYv+5GXj7wKNa/zHOjNcrK0VepnpyhlpAsUqdxfpUBwyKRTqPHY0zVNJxDRxl+x7+CD/wm3Ps3NN753xD/8Crb53z2LBvsWtB42wsB7zwe43vv/kM41iB56Cv8+Nos9vIaplQp1iRjrsmejgUvzvLNTzwEjuDlGwf52d4s+TWXxEKddUfXLVckSs/b9QWCKEz1YsCTTz6JlbRoNBqMj08gRJik6rpBPl/Atm1WV1eJx+OUy2Xy+RxvfeAB7O88ydzh5zn6yitcsecKPM+jtFaiOFAkm80yOzuLqql860P7oNng3z7wIJlMBk3TaLVatNsdlpaW2L17D7VaDRyHK/fvZ+7cOcyBAdRU8pJxSgkAH0lDkzR02aul464k1glvHCoUWTs9h9n0GHN1chUXpdzAcgJKDQdiFtvJYMxU+eurFNI//RI04YXv/IDppMvKWJKXl+coG7AwnmE6r/CkZfPSG/K8/UiH/7SU4y8/8PugCuR7rue5EZ+EmaDVcLiulmbw5TWKtoTDJ8BQIJvkZFBmbcBYT5H6kNJYz5N6WUR0FIBAgu+zsrLCFVdfzcr8PGtrZWQQMDQ4xNmzZ9m6fTczMzMMJocAwgJPVfn7O25HiKg011QK+TxXPfgpiAVQr0NugG/fdReKouDZNmPXjBH83Q/Zecst/ODpH6Drg+QKBag6EPikUilQlbBGAxIJi+WlZYqJGH0ePTy9q5g+1ZhHoemRd3y2lwK2lwKWE5LlhISsxnJe5+8XX2W+aGCfLzGWGyZV9XlDdoz2OZsrh3dyenWNpqaHHk5KYuUWoyLO+IkKVy3DVU88DJt8Wv/hI/C7D8GA4M37b6NqQi2ukpou8ZNH/hqqgqtkjnLH4dTCOWbMFks5BVsJ4Mrd0NZQzlcYzQ0yYuUubVPrmW6EVDcjlut5xp99+zuYponruoyMjOA4Dp1Oh5mZWRRVoWbXGBsbo16v0263QdewrCTNRpOJLRO02x1wXT69bx9V2+bcmTMcf/ppNt9wA0JR6HQ6qIrKwMBAiCKgqirbdk6RSqXwPI9WuwUxk+mHH6aQL3Dy+HHqjXqPV/oydWXUdhm1XWYyLjMZj0rMp2L6FBoBhYbk69e/B8667P3uF/nJmMLfjgsOTcU5ubTMliuvRPdi1FaaJEs+40GW8Vgeqh4jR9fYNtPi2dIZvKkh8F10XeWVqQSzbx5k16/eAKrL88OSlyYMrq2mmHh+GTIGSzGfhvQ4fvokq3mDs3qHm7/xCBQ8tv7oLP962sdCZ9PoON1jvH5QLqin+o0uzIRNw+Dxm26CQoG7H/0SjuOg6waZTIaFhQXa7Tabx8aoVm1WS6vYdg0CycDgIKnhYfyoAqZWY98Df8qvPPQQNxw4AIkE937wg/i+TyKRoDY/TyydAjNMnJvNJjt37GB5eZkbHnsUhOCu225DGxhAKAqarlFbXr5kPSUOj0xIIQQNMwy+6Y6I0qR4eD6npeh0XI5uTvC+J56AjAcryzCSAE0DLR0ar93isY99jOaZGT70xBOc+sP/yrFjx9ibGGF+fp6Tm2K87W1vJ/U774NqlfPvv49Wq0XO7RAEPv9r0OF9jz0GmRRfvu1WzFSKWz79afBjMD/PK/s+zvbt2/n5zFHi8QS/pGSorpZoZfvP4cMzCg26Ve66E+w/W1MUFcMMU6Ev33wzK1kf0zS54Z3/hkw6w5pikU6nydba2LaN8H146SW23Xcfs3fcQaVcQdd1kskkh358iPrTf0fCSrCjHhCLxZCdFkKI0J4sC2ybTDqDr6k8ce9/YajioygK45bFiRMn0JI6hUIB++QyiqoAYVrXC1cCxOGhSdk7n+57W7o9qr6G0KXonbiKoigs2BUKhQJn1lbYNTXFVQ8+CIkET9/822iaRoEE5XKZXdlNNBp1tHqHXC6PslrHMHRmR2PU6jXe+Mzj4Ll8784PIaVkW0PiOA5pNWwQTNRcNMviTGsJy0ogA+PiNEn2IdOXSvQH6cvSXc/Drtlks1kMw2DX1BRHjx3ju7ffDkHAO77+dSzLwnGaJJMWjUYdwzCwrCS1Wo1kIY+RSOB6LkIo/MXvvx88j39/4EBvH8dxiMVioW0KwdrCAsmkRRDIHmt9CRHinwa3Suh26PpOOruVZITUa9EnZYy1tTWMTQOcnZnB3TLAxPg4fzt3goktW/iVLx8EpwVrixz87GdZcRq0223ShQIf+8ynaaY13vve3+DPK7sorZbIOmERufmZL4AQ/NPNd+F2XK6rQKPR4PlcjTe/+VpWDv0zI8PD1BvtjT0tAeJnA1tltzWyodXYU7H11sml6JO+wdraGgxmMUyDfyydC+1j9zjPH34effcEO3fu5Ff/JDxepG5DNhu2TtwO7ZSKKQye2/lerESCMTVJEAR8byrgzgMHYNXnyP79jB9bwrIsFq5IcerUKXYrFu12m3g8dYFpCMQ/DmyRQE/6/cVW9+bL0X2nxuDgIMurqwwPDdNsd5iZnWHr5HaEEKyWygwMDKCpBmtrJeKxBKurJTKpNKlUiqOqzzsOHoQdOf7yAx/gbf+wRj6XY6VdI2lZFJ/9HAjBUzf/ZwzTYO8K1Go1griCYRi0A3dd0BFiSn/20H/eJ7k4u7gUXVVVhBAoQuHszFlM02DX1C6qdhXbtonH4zQajSgj1xgeHiGbzZJKpahUqySTSWg6AJyfnyefz2HXaqiKQjKZ5JF9+wD4d1/8Aq1WC6fpYFkWhmFgmmYvNUKu8yd+WhiX9KvbBpvps6XXoDcGFJaXlxnND6BpOtRa+L4PtTbFYgG1LZFBgGUmqNXr+G54+DE+sYXVlVV+NB7ntw8epDWpsLKyTH1ulc9//vN8cm6Uk9PTePkYIyOjTHw1VN8jd+ynXq+jlWySySS5qK8m+rSnd+7XcyJ9NVVvvAy90+mQzWbxPI9msxHmcZpKoZDHcVpIKWm32wRBQKfdJpfLk0ymmJubww98QDL/zW8Qs9IUCkV2772eA3/1Vc6cOc3I6CiWZbGyvMxXP/pREIKrH3gAVdPI5/IYhsHGhlfk3H6cG7tsnFKU8LTpteiNmAsIVLon20qk22FfyVdDCXZ/p9HSw9FVw/VTsyqZdAbVbmOaJgfGquz/n9+i/N+/yfefeopfm9ORgeSfh1wajQbvfupr4Lo885t3YZgG45Xm//841fsmL/zeT5UX3L8+K4TA8zxc10XXdbK5LDgtpAyQ0KsILMuiWCjy2O23A7B7z+6LEOpuq4WqJRDIqMkdphyi9yKXpxcaISJKKK+wByFAjXKuru3JrviivpIMl9GOeyhxlxOmQzqtM9lJwHKV/Affw2/93rvAU3n84x8n/eyrFAoF9gQJWPUpLDpUl1pIc12QYaOcsA3V9WS9mqTr+SJgLk/vq8XY6IXWS52NXQoueJ6iKOi6ge8HlMtlFr/2NY59//ucPnQIPI/b/uiPmJycRFFCT0uzyZGfHyGbzW7kqftyz2ZGLxunlKgL/1r0QitExI/al64WwuOGx3q4Wmg7YXNeEP4sohfNKbhhv6laa2JZFgPVMIOZL5iUyxW00SLX/sWXQDeg04GiBgJO/cFHsatVCk3nojilrf++ofev7xpen97T0t4o+q57zqn/vm64kBLfD7NwTdNQVIVEIg4IMpkkuVyOs80qz916K8VMltJaCX/XMLOzs1xT2Ixt2+Q1rXdGEXEW2ZQIN7jYZgSvRy/Fwn5liFTo7Xo2IwRRqxbTD5GKdcJ5I/pR1EysTiqVZsRPEQQBr1DH8zw6MyskU0nEYBrako7bZnLbJMpzr/LW0TFe0sDXRfQDnfCthOzaVM8ZbHQhv2ickn1zXWR7n/7u37rWdxcAEE8kcN0OlUqFcnRSNTg4QDKVJGlZdDoddF3H931OnDjO0NAQnVaL6enpMMe8VJx6JjkSvWY3U9iYTXRzv9emy3X6a8a516YHIvr9Rh+9e03f+tei98/31lzYkLsomrwenQs+8v+OfjH5/40O3Z/xXMDCRcb/i9D7vEGfNv5C9HXypQL769PlBXSlPwPoHTVtvPXy9D4oe6rd4/r16fJCCfXIfVXC5ehdWldg4RHZOsP9zHbPYl6X3t1gXZwbXuD16F1G1skbJPf69Eug938AF1IQrvdLHqgAAAAASUVORK5CYII=;" parent="pP9tDQBffpjNEWrVpB4a-1" vertex="1">
          <mxGeometry x="1254.5" y="610.5" width="53" height="53" as="geometry" />
        </mxCell>
        <mxCell id="lOTJQNplEwWjjSjJ1z2Q-20" value="Guard Duty" style="sketch=0;points=[[0,0,0],[0.25,0,0],[0.5,0,0],[0.75,0,0],[1,0,0],[0,1,0],[0.25,1,0],[0.5,1,0],[0.75,1,0],[1,1,0],[0,0.25,0],[0,0.5,0],[0,0.75,0],[1,0.25,0],[1,0.5,0],[1,0.75,0]];outlineConnect=0;fontColor=#232F3E;fillColor=#DD344C;strokeColor=#ffffff;dashed=0;verticalLabelPosition=bottom;verticalAlign=top;align=center;html=1;fontSize=12;fontStyle=0;aspect=fixed;shape=mxgraph.aws4.resourceIcon;resIcon=mxgraph.aws4.guardduty;" parent="pP9tDQBffpjNEWrVpB4a-1" vertex="1">
          <mxGeometry x="1012" y="700" width="50" height="50" as="geometry" />
        </mxCell>
        <mxCell id="lOTJQNplEwWjjSjJ1z2Q-21" value="Inspector" style="sketch=0;points=[[0,0,0],[0.25,0,0],[0.5,0,0],[0.75,0,0],[1,0,0],[0,1,0],[0.25,1,0],[0.5,1,0],[0.75,1,0],[1,1,0],[0,0.25,0],[0,0.5,0],[0,0.75,0],[1,0.25,0],[1,0.5,0],[1,0.75,0]];outlineConnect=0;fontColor=#232F3E;fillColor=#DD344C;strokeColor=#ffffff;dashed=0;verticalLabelPosition=bottom;verticalAlign=top;align=center;html=1;fontSize=12;fontStyle=0;aspect=fixed;shape=mxgraph.aws4.resourceIcon;resIcon=mxgraph.aws4.inspector;" parent="pP9tDQBffpjNEWrVpB4a-1" vertex="1">
          <mxGeometry x="1093" y="700" width="50" height="50" as="geometry" />
        </mxCell>
        <mxCell id="lOTJQNplEwWjjSjJ1z2Q-22" value="Macie" style="sketch=0;points=[[0,0,0],[0.25,0,0],[0.5,0,0],[0.75,0,0],[1,0,0],[0,1,0],[0.25,1,0],[0.5,1,0],[0.75,1,0],[1,1,0],[0,0.25,0],[0,0.5,0],[0,0.75,0],[1,0.25,0],[1,0.5,0],[1,0.75,0]];outlineConnect=0;fontColor=#232F3E;fillColor=#DD344C;strokeColor=#ffffff;dashed=0;verticalLabelPosition=bottom;verticalAlign=top;align=center;html=1;fontSize=12;fontStyle=0;aspect=fixed;shape=mxgraph.aws4.resourceIcon;resIcon=mxgraph.aws4.macie;" parent="pP9tDQBffpjNEWrVpB4a-1" vertex="1">
          <mxGeometry x="1174" y="700" width="50" height="50" as="geometry" />
        </mxCell>
        <mxCell id="lOTJQNplEwWjjSjJ1z2Q-23" value="Firewall Manager" style="sketch=0;points=[[0,0,0],[0.25,0,0],[0.5,0,0],[0.75,0,0],[1,0,0],[0,1,0],[0.25,1,0],[0.5,1,0],[0.75,1,0],[1,1,0],[0,0.25,0],[0,0.5,0],[0,0.75,0],[1,0.25,0],[1,0.5,0],[1,0.75,0]];outlineConnect=0;fontColor=#232F3E;fillColor=#DD344C;strokeColor=#ffffff;dashed=0;verticalLabelPosition=bottom;verticalAlign=top;align=center;html=1;fontSize=12;fontStyle=0;aspect=fixed;shape=mxgraph.aws4.resourceIcon;resIcon=mxgraph.aws4.firewall_manager;" parent="pP9tDQBffpjNEWrVpB4a-1" vertex="1">
          <mxGeometry x="1255" y="700" width="50" height="50" as="geometry" />
        </mxCell>
        <mxCell id="lOTJQNplEwWjjSjJ1z2Q-24" value="Discovery" style="text;html=1;strokeColor=none;fillColor=none;align=center;verticalAlign=middle;whiteSpace=wrap;rounded=0;fontStyle=1" parent="pP9tDQBffpjNEWrVpB4a-1" vertex="1">
          <mxGeometry x="1021" y="800" width="270" height="30" as="geometry" />
        </mxCell>
        <mxCell id="lOTJQNplEwWjjSjJ1z2Q-25" value="Athena" style="sketch=0;points=[[0,0,0],[0.25,0,0],[0.5,0,0],[0.75,0,0],[1,0,0],[0,1,0],[0.25,1,0],[0.5,1,0],[0.75,1,0],[1,1,0],[0,0.25,0],[0,0.5,0],[0,0.75,0],[1,0.25,0],[1,0.5,0],[1,0.75,0]];outlineConnect=0;fontColor=#232F3E;fillColor=#8C4FFF;strokeColor=#ffffff;dashed=0;verticalLabelPosition=bottom;verticalAlign=top;align=center;html=1;fontSize=12;fontStyle=0;aspect=fixed;shape=mxgraph.aws4.resourceIcon;resIcon=mxgraph.aws4.athena;" parent="pP9tDQBffpjNEWrVpB4a-1" vertex="1">
          <mxGeometry x="1034" y="825" width="53" height="53" as="geometry" />
        </mxCell>
        <mxCell id="lOTJQNplEwWjjSjJ1z2Q-34" value="" style="rounded=0;whiteSpace=wrap;html=1;fillColor=none;" parent="pP9tDQBffpjNEWrVpB4a-1" vertex="1">
          <mxGeometry x="1485" y="739" width="290" height="221" as="geometry" />
        </mxCell>
        <mxCell id="lOTJQNplEwWjjSjJ1z2Q-35" value="Redshift Data mart" style="sketch=0;points=[[0,0,0],[0.25,0,0],[0.5,0,0],[0.75,0,0],[1,0,0],[0,1,0],[0.25,1,0],[0.5,1,0],[0.75,1,0],[1,1,0],[0,0.25,0],[0,0.5,0],[0,0.75,0],[1,0.25,0],[1,0.5,0],[1,0.75,0]];outlineConnect=0;fontColor=#232F3E;fillColor=#C925D1;strokeColor=#ffffff;dashed=0;verticalLabelPosition=bottom;verticalAlign=top;align=center;html=1;fontSize=12;fontStyle=0;aspect=fixed;shape=mxgraph.aws4.resourceIcon;resIcon=mxgraph.aws4.redshift;" parent="pP9tDQBffpjNEWrVpB4a-1" vertex="1">
          <mxGeometry x="1521.5" y="793" width="52" height="52" as="geometry" />
        </mxCell>
        <mxCell id="lOTJQNplEwWjjSjJ1z2Q-36" value="Athena" style="sketch=0;points=[[0,0,0],[0.25,0,0],[0.5,0,0],[0.75,0,0],[1,0,0],[0,1,0],[0.25,1,0],[0.5,1,0],[0.75,1,0],[1,1,0],[0,0.25,0],[0,0.5,0],[0,0.75,0],[1,0.25,0],[1,0.5,0],[1,0.75,0]];outlineConnect=0;fontColor=#232F3E;fillColor=#8C4FFF;strokeColor=#ffffff;dashed=0;verticalLabelPosition=bottom;verticalAlign=top;align=center;html=1;fontSize=12;fontStyle=0;aspect=fixed;shape=mxgraph.aws4.resourceIcon;resIcon=mxgraph.aws4.athena;" parent="pP9tDQBffpjNEWrVpB4a-1" vertex="1">
          <mxGeometry x="1518.5" y="880" width="55" height="55" as="geometry" />
        </mxCell>
        <mxCell id="lOTJQNplEwWjjSjJ1z2Q-37" value="&lt;div&gt;Amazon QuickSight&lt;/div&gt;&lt;div&gt;Analytics&lt;/div&gt;" style="sketch=0;points=[[0,0,0],[0.25,0,0],[0.5,0,0],[0.75,0,0],[1,0,0],[0,1,0],[0.25,1,0],[0.5,1,0],[0.75,1,0],[1,1,0],[0,0.25,0],[0,0.5,0],[0,0.75,0],[1,0.25,0],[1,0.5,0],[1,0.75,0]];outlineConnect=0;fontColor=#232F3E;fillColor=#8C4FFF;strokeColor=#ffffff;dashed=0;verticalLabelPosition=bottom;verticalAlign=top;align=center;html=1;fontSize=12;fontStyle=0;aspect=fixed;shape=mxgraph.aws4.resourceIcon;resIcon=mxgraph.aws4.quicksight;" parent="pP9tDQBffpjNEWrVpB4a-1" vertex="1">
          <mxGeometry x="1670.5" y="831.5" width="60" height="60" as="geometry" />
        </mxCell>
        <mxCell id="lOTJQNplEwWjjSjJ1z2Q-38" style="edgeStyle=orthogonalEdgeStyle;rounded=0;orthogonalLoop=1;jettySize=auto;html=1;entryX=0;entryY=0.5;entryDx=0;entryDy=0;entryPerimeter=0;" parent="pP9tDQBffpjNEWrVpB4a-1" source="lOTJQNplEwWjjSjJ1z2Q-35" target="lOTJQNplEwWjjSjJ1z2Q-37" edge="1">
          <mxGeometry relative="1" as="geometry" />
        </mxCell>
        <mxCell id="lOTJQNplEwWjjSjJ1z2Q-39" style="edgeStyle=orthogonalEdgeStyle;rounded=0;orthogonalLoop=1;jettySize=auto;html=1;entryX=0;entryY=0.5;entryDx=0;entryDy=0;entryPerimeter=0;" parent="pP9tDQBffpjNEWrVpB4a-1" source="lOTJQNplEwWjjSjJ1z2Q-36" target="lOTJQNplEwWjjSjJ1z2Q-37" edge="1">
          <mxGeometry relative="1" as="geometry" />
        </mxCell>
        <mxCell id="lOTJQNplEwWjjSjJ1z2Q-47" value="Business Analytics&lt;span style=&quot;background-color: initial;&quot;&gt;&amp;nbsp;Domain&lt;/span&gt;" style="text;html=1;strokeColor=none;fillColor=none;align=center;verticalAlign=middle;whiteSpace=wrap;rounded=0;fontStyle=1" parent="pP9tDQBffpjNEWrVpB4a-1" vertex="1">
          <mxGeometry x="1490.5" y="705.5" width="290" height="30" as="geometry" />
        </mxCell>
        <mxCell id="lOTJQNplEwWjjSjJ1z2Q-49" value="Central IT Platform" style="text;html=1;strokeColor=none;fillColor=none;align=center;verticalAlign=middle;whiteSpace=wrap;rounded=0;fontStyle=1" parent="pP9tDQBffpjNEWrVpB4a-1" vertex="1">
          <mxGeometry x="1100" y="130" width="174.5" height="30" as="geometry" />
        </mxCell>
        <mxCell id="lOTJQNplEwWjjSjJ1z2Q-51" value="API Gateway" style="sketch=0;points=[[0,0,0],[0.25,0,0],[0.5,0,0],[0.75,0,0],[1,0,0],[0,1,0],[0.25,1,0],[0.5,1,0],[0.75,1,0],[1,1,0],[0,0.25,0],[0,0.5,0],[0,0.75,0],[1,0.25,0],[1,0.5,0],[1,0.75,0]];outlineConnect=0;fontColor=#232F3E;fillColor=#8C4FFF;strokeColor=#ffffff;dashed=0;verticalLabelPosition=bottom;verticalAlign=top;align=center;html=1;fontSize=12;fontStyle=0;aspect=fixed;shape=mxgraph.aws4.resourceIcon;resIcon=mxgraph.aws4.api_gateway;" parent="pP9tDQBffpjNEWrVpB4a-1" vertex="1">
          <mxGeometry x="738.75" y="517.5" width="60" height="60" as="geometry" />
        </mxCell>
        <mxCell id="PNAIs5kzrbzdRNxsqS2j-7" style="edgeStyle=orthogonalEdgeStyle;rounded=0;orthogonalLoop=1;jettySize=auto;html=1;" parent="pP9tDQBffpjNEWrVpB4a-1" source="pP9tDQBffpjNEWrVpB4a-55" edge="1">
          <mxGeometry relative="1" as="geometry">
            <mxPoint x="340" y="600" as="targetPoint" />
            <Array as="points">
              <mxPoint x="335" y="600" />
            </Array>
          </mxGeometry>
        </mxCell>
        <mxCell id="PNAIs5kzrbzdRNxsqS2j-11" value="&lt;blockquote style=&quot;margin: 0 0 0 40px; border: none; padding: 0px;&quot;&gt;&lt;div&gt;Data&amp;nbsp;&lt;span style=&quot;background-color: initial;&quot;&gt;Sources&lt;/span&gt;&lt;/div&gt;&lt;/blockquote&gt;" style="text;html=1;strokeColor=none;fillColor=none;align=center;verticalAlign=middle;whiteSpace=wrap;rounded=0;fontStyle=1" parent="pP9tDQBffpjNEWrVpB4a-1" vertex="1">
          <mxGeometry x="1508.5" y="120" width="220" height="50" as="geometry" />
        </mxCell>
        <mxCell id="OMwQpY4EKDgIRgRuWHjO-0" value="Neptune" style="sketch=0;points=[[0,0,0],[0.25,0,0],[0.5,0,0],[0.75,0,0],[1,0,0],[0,1,0],[0.25,1,0],[0.5,1,0],[0.75,1,0],[1,1,0],[0,0.25,0],[0,0.5,0],[0,0.75,0],[1,0.25,0],[1,0.5,0],[1,0.75,0]];outlineConnect=0;fontColor=#232F3E;fillColor=#C925D1;strokeColor=#ffffff;dashed=0;verticalLabelPosition=bottom;verticalAlign=top;align=center;html=1;fontSize=12;fontStyle=0;aspect=fixed;shape=mxgraph.aws4.resourceIcon;resIcon=mxgraph.aws4.neptune;" parent="pP9tDQBffpjNEWrVpB4a-1" vertex="1">
          <mxGeometry x="1605" y="485.37" width="50" height="50" as="geometry" />
        </mxCell>
        <mxCell id="JTZxDjC7wxZ5BFhppaQA-3" value="" style="rounded=0;whiteSpace=wrap;html=1;fillColor=none;" parent="pP9tDQBffpjNEWrVpB4a-1" vertex="1">
          <mxGeometry x="1490" y="220" width="260" height="161.24" as="geometry" />
        </mxCell>
        <mxCell id="Rts7eVzzd_GZlkzJQfAq-5" value="Personalise" style="sketch=0;points=[[0,0,0],[0.25,0,0],[0.5,0,0],[0.75,0,0],[1,0,0],[0,1,0],[0.25,1,0],[0.5,1,0],[0.75,1,0],[1,1,0],[0,0.25,0],[0,0.5,0],[0,0.75,0],[1,0.25,0],[1,0.5,0],[1,0.75,0]];outlineConnect=0;fontColor=#232F3E;fillColor=#01A88D;strokeColor=#ffffff;dashed=0;verticalLabelPosition=bottom;verticalAlign=top;align=center;html=1;fontSize=12;fontStyle=0;aspect=fixed;shape=mxgraph.aws4.resourceIcon;resIcon=mxgraph.aws4.personalize;" parent="pP9tDQBffpjNEWrVpB4a-1" vertex="1">
          <mxGeometry x="1522.5" y="282.37" width="52" height="52" as="geometry" />
        </mxCell>
        <mxCell id="lOTJQNplEwWjjSjJ1z2Q-2" value="Account - Machine Learning" style="text;html=1;strokeColor=none;fillColor=none;align=center;verticalAlign=middle;whiteSpace=wrap;rounded=0;fontStyle=1" parent="pP9tDQBffpjNEWrVpB4a-1" vertex="1">
          <mxGeometry x="1508.5" y="237.5" width="207.5" height="30" as="geometry" />
        </mxCell>
        <mxCell id="Rts7eVzzd_GZlkzJQfAq-6" value="Sagemaker Segmentation" style="sketch=0;points=[[0,0,0],[0.25,0,0],[0.5,0,0],[0.75,0,0],[1,0,0],[0,1,0],[0.25,1,0],[0.5,1,0],[0.75,1,0],[1,1,0],[0,0.25,0],[0,0.5,0],[0,0.75,0],[1,0.25,0],[1,0.5,0],[1,0.75,0]];outlineConnect=0;fontColor=#232F3E;fillColor=#01A88D;strokeColor=#ffffff;dashed=0;verticalLabelPosition=bottom;verticalAlign=top;align=center;html=1;fontSize=12;fontStyle=0;aspect=fixed;shape=mxgraph.aws4.resourceIcon;resIcon=mxgraph.aws4.sagemaker;" parent="pP9tDQBffpjNEWrVpB4a-1" vertex="1">
          <mxGeometry x="1639.5" y="282.37" width="52" height="52" as="geometry" />
        </mxCell>
        <mxCell id="PNAIs5kzrbzdRNxsqS2j-24" value="&lt;h4 style=&quot;box-sizing: inherit; margin: 1em 0px; padding: 0px; border: 0px; outline: 0px; font-size: 16px; vertical-align: baseline; background: rgb(255, 255, 255); color: rgb(48, 54, 51); font-family: Lora, serif;&quot;&gt;Consumer oriented and Aggregate domain data&lt;br&gt;&lt;/h4&gt;&lt;div&gt;&lt;br&gt;&lt;/div&gt;" style="text;html=1;strokeColor=none;fillColor=none;align=center;verticalAlign=middle;whiteSpace=wrap;rounded=0;fontStyle=1" parent="pP9tDQBffpjNEWrVpB4a-1" vertex="1">
          <mxGeometry x="1495.5" y="190" width="240" height="30" as="geometry" />
        </mxCell>
        <mxCell id="Wx3FdOMsACB6xa8st3bO-2" value="Compensation Management" style="rounded=0;whiteSpace=wrap;align=center;html=1;" parent="pP9tDQBffpjNEWrVpB4a-1" vertex="1">
          <mxGeometry x="80" y="1070" width="120" height="60" as="geometry" />
        </mxCell>
        <mxCell id="Wx3FdOMsACB6xa8st3bO-3" value="Case Management" style="rounded=0;whiteSpace=wrap;align=center;fontStyle=0;fontColor=default;html=1;" parent="pP9tDQBffpjNEWrVpB4a-1" vertex="1">
          <mxGeometry x="80" y="996" width="120" height="60" as="geometry" />
        </mxCell>
        <mxCell id="OMwQpY4EKDgIRgRuWHjO-1" value="Customer&amp;nbsp;360 view" style="text;html=1;strokeColor=none;fillColor=none;align=center;verticalAlign=middle;whiteSpace=wrap;rounded=0;fontStyle=1" parent="pP9tDQBffpjNEWrVpB4a-1" vertex="1">
          <mxGeometry x="1535.5" y="445" width="200" height="30" as="geometry" />
        </mxCell>
      </root>
    </mxGraphModel>
  </diagram>
  <diagram id="9Od-BtwrmXop7oBC0UWM" name="Page-7">
    <mxGraphModel dx="700" dy="455" grid="1" gridSize="10" guides="1" tooltips="1" connect="1" arrows="1" fold="1" page="1" pageScale="1" pageWidth="1800" pageHeight="1200" math="0" shadow="0">
      <root>
        <mxCell id="0" />
        <mxCell id="1" parent="0" />
        <mxCell id="a7efzvpeP9cJLx9gaMei-1" value="Federal Governance" style="rounded=0;whiteSpace=wrap;html=1;" vertex="1" parent="1">
          <mxGeometry x="240" y="360" width="420" height="30" as="geometry" />
        </mxCell>
        <mxCell id="a7efzvpeP9cJLx9gaMei-2" value="Self Serve Data Platform" style="rounded=0;whiteSpace=wrap;html=1;" vertex="1" parent="1">
          <mxGeometry x="240" y="180" width="420" height="30" as="geometry" />
        </mxCell>
        <mxCell id="a7efzvpeP9cJLx9gaMei-3" value="Domain 1" style="rounded=0;whiteSpace=wrap;html=1;" vertex="1" parent="1">
          <mxGeometry x="240" y="220" width="120" height="60" as="geometry" />
        </mxCell>
        <mxCell id="a7efzvpeP9cJLx9gaMei-4" value="Domain 2" style="rounded=0;whiteSpace=wrap;html=1;" vertex="1" parent="1">
          <mxGeometry x="390" y="220" width="120" height="60" as="geometry" />
        </mxCell>
        <mxCell id="a7efzvpeP9cJLx9gaMei-5" value="Domain 3" style="rounded=0;whiteSpace=wrap;html=1;" vertex="1" parent="1">
          <mxGeometry x="540" y="220" width="120" height="60" as="geometry" />
        </mxCell>
        <mxCell id="a7efzvpeP9cJLx9gaMei-6" value="Domain (n)" style="rounded=0;whiteSpace=wrap;html=1;" vertex="1" parent="1">
          <mxGeometry x="540" y="290" width="120" height="60" as="geometry" />
        </mxCell>
        <mxCell id="a7efzvpeP9cJLx9gaMei-7" value="Domain 4" style="rounded=0;whiteSpace=wrap;html=1;" vertex="1" parent="1">
          <mxGeometry x="240" y="290" width="120" height="60" as="geometry" />
        </mxCell>
        <mxCell id="a7efzvpeP9cJLx9gaMei-8" value="..." style="text;html=1;strokeColor=none;fillColor=none;align=center;verticalAlign=middle;whiteSpace=wrap;rounded=0;fontStyle=1" vertex="1" parent="1">
          <mxGeometry x="420" y="310" width="60" height="30" as="geometry" />
        </mxCell>
      </root>
    </mxGraphModel>
  </diagram>
  <diagram id="pm4YBGjJ_tmgSMfDx_Ey" name="operational-data-mesh">
    <mxGraphModel dx="1055" dy="758" grid="1" gridSize="10" guides="1" tooltips="1" connect="1" arrows="1" fold="1" page="1" pageScale="1" pageWidth="1800" pageHeight="1200" math="0" shadow="0">
      <root>
        <mxCell id="0" />
        <mxCell id="1" parent="0" />
        <mxCell id="j0Bbw4nHB6VMARSxLmfl-9" value="" style="rounded=0;whiteSpace=wrap;html=1;" vertex="1" parent="1">
          <mxGeometry x="358" y="498" width="120" height="94" as="geometry" />
        </mxCell>
        <mxCell id="l5_L0diEIjoXmg0nSmRe-10" value="" style="rounded=0;whiteSpace=wrap;html=1;" vertex="1" parent="1">
          <mxGeometry x="90" y="140" width="180" height="120" as="geometry" />
        </mxCell>
        <mxCell id="r5VQbScu-3sjz_HRoi1q-1" value="Operational Data" style="rounded=0;whiteSpace=wrap;html=1;" vertex="1" parent="1">
          <mxGeometry x="90" y="350" width="120" height="110" as="geometry" />
        </mxCell>
        <mxCell id="r5VQbScu-3sjz_HRoi1q-2" value="System of record" style="text;html=1;strokeColor=none;fillColor=none;align=center;verticalAlign=middle;whiteSpace=wrap;rounded=0;" vertex="1" parent="1">
          <mxGeometry x="90" y="320" width="120" height="30" as="geometry" />
        </mxCell>
        <mxCell id="r5VQbScu-3sjz_HRoi1q-7" style="edgeStyle=orthogonalEdgeStyle;rounded=0;orthogonalLoop=1;jettySize=auto;html=1;" edge="1" parent="1" source="r5VQbScu-3sjz_HRoi1q-3" target="r5VQbScu-3sjz_HRoi1q-6">
          <mxGeometry relative="1" as="geometry" />
        </mxCell>
        <mxCell id="j0Bbw4nHB6VMARSxLmfl-12" style="edgeStyle=orthogonalEdgeStyle;rounded=0;orthogonalLoop=1;jettySize=auto;html=1;entryX=0;entryY=0.5;entryDx=0;entryDy=0;" edge="1" parent="1" source="r5VQbScu-3sjz_HRoi1q-3" target="j0Bbw4nHB6VMARSxLmfl-9">
          <mxGeometry relative="1" as="geometry">
            <Array as="points">
              <mxPoint x="300" y="545" />
            </Array>
          </mxGeometry>
        </mxCell>
        <mxCell id="r5VQbScu-3sjz_HRoi1q-3" value="Kinesis data streams" style="sketch=0;points=[[0,0,0],[0.25,0,0],[0.5,0,0],[0.75,0,0],[1,0,0],[0,1,0],[0.25,1,0],[0.5,1,0],[0.75,1,0],[1,1,0],[0,0.25,0],[0,0.5,0],[0,0.75,0],[1,0.25,0],[1,0.5,0],[1,0.75,0]];outlineConnect=0;fontColor=#232F3E;fillColor=#8C4FFF;strokeColor=#ffffff;dashed=0;verticalLabelPosition=bottom;verticalAlign=top;align=center;html=1;fontSize=12;fontStyle=0;aspect=fixed;shape=mxgraph.aws4.resourceIcon;resIcon=mxgraph.aws4.kinesis_data_streams;" vertex="1" parent="1">
          <mxGeometry x="290" y="360" width="60" height="60" as="geometry" />
        </mxCell>
        <mxCell id="r5VQbScu-3sjz_HRoi1q-4" style="edgeStyle=orthogonalEdgeStyle;rounded=0;orthogonalLoop=1;jettySize=auto;html=1;entryX=0;entryY=0.75;entryDx=0;entryDy=0;entryPerimeter=0;" edge="1" parent="1" source="r5VQbScu-3sjz_HRoi1q-1" target="r5VQbScu-3sjz_HRoi1q-3">
          <mxGeometry relative="1" as="geometry" />
        </mxCell>
        <mxCell id="r5VQbScu-3sjz_HRoi1q-5" value="Events" style="edgeLabel;html=1;align=center;verticalAlign=middle;resizable=0;points=[];" vertex="1" connectable="0" parent="r5VQbScu-3sjz_HRoi1q-4">
          <mxGeometry x="-0.0099" relative="1" as="geometry">
            <mxPoint as="offset" />
          </mxGeometry>
        </mxCell>
        <mxCell id="9A29AEbPQsljLTtBckkn-2" style="edgeStyle=orthogonalEdgeStyle;rounded=0;orthogonalLoop=1;jettySize=auto;html=1;" edge="1" parent="1" source="r5VQbScu-3sjz_HRoi1q-6" target="9A29AEbPQsljLTtBckkn-1">
          <mxGeometry relative="1" as="geometry" />
        </mxCell>
        <mxCell id="r5VQbScu-3sjz_HRoi1q-6" value="Kinesis fire hose" style="sketch=0;points=[[0,0,0],[0.25,0,0],[0.5,0,0],[0.75,0,0],[1,0,0],[0,1,0],[0.25,1,0],[0.5,1,0],[0.75,1,0],[1,1,0],[0,0.25,0],[0,0.5,0],[0,0.75,0],[1,0.25,0],[1,0.5,0],[1,0.75,0]];outlineConnect=0;fontColor=#232F3E;fillColor=#8C4FFF;strokeColor=#ffffff;dashed=0;verticalLabelPosition=bottom;verticalAlign=top;align=center;html=1;fontSize=12;fontStyle=0;aspect=fixed;shape=mxgraph.aws4.resourceIcon;resIcon=mxgraph.aws4.kinesis_data_firehose;" vertex="1" parent="1">
          <mxGeometry x="450" y="360.5" width="60.79" height="59" as="geometry" />
        </mxCell>
        <mxCell id="9A29AEbPQsljLTtBckkn-1" value="Raw data real time" style="sketch=0;outlineConnect=0;fontColor=#232F3E;gradientColor=none;fillColor=#7AA116;strokeColor=none;dashed=0;verticalLabelPosition=bottom;verticalAlign=top;align=center;html=1;fontSize=12;fontStyle=0;aspect=fixed;pointerEvents=1;shape=mxgraph.aws4.bucket;" vertex="1" parent="1">
          <mxGeometry x="449.99999999999994" y="270" width="48.08" height="50" as="geometry" />
        </mxCell>
        <mxCell id="9A29AEbPQsljLTtBckkn-3" value="Raw data batch staging" style="sketch=0;outlineConnect=0;fontColor=#232F3E;gradientColor=none;fillColor=#7AA116;strokeColor=none;dashed=0;verticalLabelPosition=bottom;verticalAlign=top;align=center;html=1;fontSize=12;fontStyle=0;aspect=fixed;pointerEvents=1;shape=mxgraph.aws4.bucket;" vertex="1" parent="1">
          <mxGeometry x="301.91999999999996" y="270" width="48.08" height="50" as="geometry" />
        </mxCell>
        <mxCell id="l5_L0diEIjoXmg0nSmRe-4" value="Transfer Family" style="sketch=0;points=[[0,0,0],[0.25,0,0],[0.5,0,0],[0.75,0,0],[1,0,0],[0,1,0],[0.25,1,0],[0.5,1,0],[0.75,1,0],[1,1,0],[0,0.25,0],[0,0.5,0],[0,0.75,0],[1,0.25,0],[1,0.5,0],[1,0.75,0]];outlineConnect=0;fontColor=#232F3E;fillColor=#01A88D;strokeColor=#ffffff;dashed=0;verticalLabelPosition=bottom;verticalAlign=top;align=center;html=1;fontSize=12;fontStyle=0;aspect=fixed;shape=mxgraph.aws4.resourceIcon;resIcon=mxgraph.aws4.migration_and_transfer;" vertex="1" parent="1">
          <mxGeometry x="112.25" y="160" width="55.5" height="55.5" as="geometry" />
        </mxCell>
        <mxCell id="j0Bbw4nHB6VMARSxLmfl-5" style="edgeStyle=orthogonalEdgeStyle;rounded=0;orthogonalLoop=1;jettySize=auto;html=1;" edge="1" parent="1" source="l5_L0diEIjoXmg0nSmRe-5" target="9A29AEbPQsljLTtBckkn-3">
          <mxGeometry relative="1" as="geometry" />
        </mxCell>
        <mxCell id="l5_L0diEIjoXmg0nSmRe-5" value="AWS Data&lt;br/&gt;Exchange" style="sketch=0;points=[[0,0,0],[0.25,0,0],[0.5,0,0],[0.75,0,0],[1,0,0],[0,1,0],[0.25,1,0],[0.5,1,0],[0.75,1,0],[1,1,0],[0,0.25,0],[0,0.5,0],[0,0.75,0],[1,0.25,0],[1,0.5,0],[1,0.75,0]];outlineConnect=0;fontColor=#232F3E;fillColor=#8C4FFF;strokeColor=#ffffff;dashed=0;verticalLabelPosition=bottom;verticalAlign=top;align=center;html=1;fontSize=12;fontStyle=0;aspect=fixed;shape=mxgraph.aws4.resourceIcon;resIcon=mxgraph.aws4.data_exchange;" vertex="1" parent="1">
          <mxGeometry x="190" y="160" width="55.5" height="55.5" as="geometry" />
        </mxCell>
        <mxCell id="l5_L0diEIjoXmg0nSmRe-11" value="Data Ingestion" style="text;html=1;strokeColor=none;fillColor=none;align=center;verticalAlign=middle;whiteSpace=wrap;rounded=0;" vertex="1" parent="1">
          <mxGeometry x="125" y="110" width="110" height="30" as="geometry" />
        </mxCell>
        <mxCell id="j0Bbw4nHB6VMARSxLmfl-3" style="edgeStyle=orthogonalEdgeStyle;rounded=0;orthogonalLoop=1;jettySize=auto;html=1;entryX=0.337;entryY=0.978;entryDx=0;entryDy=0;entryPerimeter=0;" edge="1" parent="1" source="r5VQbScu-3sjz_HRoi1q-1" target="l5_L0diEIjoXmg0nSmRe-10">
          <mxGeometry relative="1" as="geometry" />
        </mxCell>
        <mxCell id="j0Bbw4nHB6VMARSxLmfl-6" value="Derived data set" style="sketch=0;outlineConnect=0;fontColor=#232F3E;gradientColor=none;fillColor=#7AA116;strokeColor=none;dashed=0;verticalLabelPosition=bottom;verticalAlign=top;align=center;html=1;fontSize=12;fontStyle=0;aspect=fixed;pointerEvents=1;shape=mxgraph.aws4.bucket;" vertex="1" parent="1">
          <mxGeometry x="599.04" y="270" width="48.08" height="50" as="geometry" />
        </mxCell>
        <mxCell id="j0Bbw4nHB6VMARSxLmfl-7" value="Lamda" style="outlineConnect=0;dashed=0;verticalLabelPosition=bottom;verticalAlign=top;align=center;html=1;shape=mxgraph.aws3.lambda_function;fillColor=#F58534;gradientColor=none;" vertex="1" parent="1">
          <mxGeometry x="386" y="500" width="64" height="60" as="geometry" />
        </mxCell>
        <mxCell id="j0Bbw4nHB6VMARSxLmfl-8" value="Dynamo DB" style="outlineConnect=0;dashed=0;verticalLabelPosition=bottom;verticalAlign=top;align=center;html=1;shape=mxgraph.aws3.dynamo_db;fillColor=#2E73B8;gradientColor=none;" vertex="1" parent="1">
          <mxGeometry x="588.08" y="502" width="70" height="70" as="geometry" />
        </mxCell>
        <mxCell id="j0Bbw4nHB6VMARSxLmfl-10" value="Custom data processing" style="text;html=1;strokeColor=none;fillColor=none;align=center;verticalAlign=middle;whiteSpace=wrap;rounded=0;" vertex="1" parent="1">
          <mxGeometry x="343" y="470" width="150" height="30" as="geometry" />
        </mxCell>
        <mxCell id="j0Bbw4nHB6VMARSxLmfl-13" style="edgeStyle=orthogonalEdgeStyle;rounded=0;orthogonalLoop=1;jettySize=auto;html=1;entryX=0.287;entryY=0.657;entryDx=0;entryDy=0;entryPerimeter=0;" edge="1" parent="1" source="j0Bbw4nHB6VMARSxLmfl-9" target="j0Bbw4nHB6VMARSxLmfl-8">
          <mxGeometry relative="1" as="geometry">
            <Array as="points">
              <mxPoint x="533" y="545" />
              <mxPoint x="533" y="548" />
            </Array>
          </mxGeometry>
        </mxCell>
        <mxCell id="j0Bbw4nHB6VMARSxLmfl-17" style="edgeStyle=orthogonalEdgeStyle;rounded=0;orthogonalLoop=1;jettySize=auto;html=1;" edge="1" parent="1" source="j0Bbw4nHB6VMARSxLmfl-14" target="j0Bbw4nHB6VMARSxLmfl-15">
          <mxGeometry relative="1" as="geometry" />
        </mxCell>
        <mxCell id="j0Bbw4nHB6VMARSxLmfl-14" value="Lamda" style="outlineConnect=0;dashed=0;verticalLabelPosition=bottom;verticalAlign=top;align=center;html=1;shape=mxgraph.aws3.lambda_function;fillColor=#F58534;gradientColor=none;" vertex="1" parent="1">
          <mxGeometry x="750" y="507" width="64" height="60" as="geometry" />
        </mxCell>
        <mxCell id="j0Bbw4nHB6VMARSxLmfl-15" value="API Gateway" style="sketch=0;points=[[0,0,0],[0.25,0,0],[0.5,0,0],[0.75,0,0],[1,0,0],[0,1,0],[0.25,1,0],[0.5,1,0],[0.75,1,0],[1,1,0],[0,0.25,0],[0,0.5,0],[0,0.75,0],[1,0.25,0],[1,0.5,0],[1,0.75,0]];outlineConnect=0;fontColor=#232F3E;fillColor=#E7157B;strokeColor=#ffffff;dashed=0;verticalLabelPosition=bottom;verticalAlign=top;align=center;html=1;fontSize=12;fontStyle=0;aspect=fixed;shape=mxgraph.aws4.resourceIcon;resIcon=mxgraph.aws4.api_gateway;" vertex="1" parent="1">
          <mxGeometry x="910" y="498" width="78" height="78" as="geometry" />
        </mxCell>
        <mxCell id="j0Bbw4nHB6VMARSxLmfl-16" style="edgeStyle=orthogonalEdgeStyle;rounded=0;orthogonalLoop=1;jettySize=auto;html=1;entryX=0;entryY=0.5;entryDx=0;entryDy=0;entryPerimeter=0;" edge="1" parent="1" source="j0Bbw4nHB6VMARSxLmfl-8" target="j0Bbw4nHB6VMARSxLmfl-14">
          <mxGeometry relative="1" as="geometry" />
        </mxCell>
        <mxCell id="j0Bbw4nHB6VMARSxLmfl-19" style="edgeStyle=orthogonalEdgeStyle;rounded=0;orthogonalLoop=1;jettySize=auto;html=1;" edge="1" parent="1" source="j0Bbw4nHB6VMARSxLmfl-18" target="j0Bbw4nHB6VMARSxLmfl-15">
          <mxGeometry relative="1" as="geometry" />
        </mxCell>
        <mxCell id="j0Bbw4nHB6VMARSxLmfl-18" value="Realtime data consumers" style="rounded=0;whiteSpace=wrap;html=1;" vertex="1" parent="1">
          <mxGeometry x="1080" y="507" width="120" height="60" as="geometry" />
        </mxCell>
        <mxCell id="j0Bbw4nHB6VMARSxLmfl-25" style="edgeStyle=orthogonalEdgeStyle;rounded=0;orthogonalLoop=1;jettySize=auto;html=1;entryX=0;entryY=0.5;entryDx=0;entryDy=0;" edge="1" parent="1" source="j0Bbw4nHB6VMARSxLmfl-21" target="j0Bbw4nHB6VMARSxLmfl-26">
          <mxGeometry relative="1" as="geometry">
            <mxPoint x="924" y="670" as="targetPoint" />
          </mxGeometry>
        </mxCell>
        <mxCell id="j0Bbw4nHB6VMARSxLmfl-21" value="Kinesis data streams" style="sketch=0;points=[[0,0,0],[0.25,0,0],[0.5,0,0],[0.75,0,0],[1,0,0],[0,1,0],[0.25,1,0],[0.5,1,0],[0.75,1,0],[1,1,0],[0,0.25,0],[0,0.5,0],[0,0.75,0],[1,0.25,0],[1,0.5,0],[1,0.75,0]];outlineConnect=0;fontColor=#232F3E;fillColor=#8C4FFF;strokeColor=#ffffff;dashed=0;verticalLabelPosition=bottom;verticalAlign=top;align=center;html=1;fontSize=12;fontStyle=0;aspect=fixed;shape=mxgraph.aws4.resourceIcon;resIcon=mxgraph.aws4.kinesis_data_streams;" vertex="1" parent="1">
          <mxGeometry x="760" y="640" width="60" height="60" as="geometry" />
        </mxCell>
        <mxCell id="j0Bbw4nHB6VMARSxLmfl-22" style="edgeStyle=orthogonalEdgeStyle;rounded=0;orthogonalLoop=1;jettySize=auto;html=1;entryX=0;entryY=0.75;entryDx=0;entryDy=0;entryPerimeter=0;" edge="1" parent="1" source="j0Bbw4nHB6VMARSxLmfl-8" target="j0Bbw4nHB6VMARSxLmfl-21">
          <mxGeometry relative="1" as="geometry">
            <Array as="points">
              <mxPoint x="623" y="685" />
            </Array>
          </mxGeometry>
        </mxCell>
        <mxCell id="j0Bbw4nHB6VMARSxLmfl-23" value="Publish data using Dynamo DB streams" style="edgeLabel;html=1;align=center;verticalAlign=middle;resizable=0;points=[];" vertex="1" connectable="0" parent="j0Bbw4nHB6VMARSxLmfl-22">
          <mxGeometry x="0.214" y="-6" relative="1" as="geometry">
            <mxPoint x="-37" as="offset" />
          </mxGeometry>
        </mxCell>
        <mxCell id="j0Bbw4nHB6VMARSxLmfl-26" value="Event Subscribers" style="rounded=0;whiteSpace=wrap;html=1;" vertex="1" parent="1">
          <mxGeometry x="1080" y="640" width="120" height="60" as="geometry" />
        </mxCell>
        <mxCell id="j0Bbw4nHB6VMARSxLmfl-28" value="" style="endArrow=none;html=1;rounded=0;" edge="1" parent="1">
          <mxGeometry width="50" height="50" relative="1" as="geometry">
            <mxPoint x="350.39" y="180.07999999999998" as="sourcePoint" />
            <mxPoint x="940" y="180" as="targetPoint" />
          </mxGeometry>
        </mxCell>
        <mxCell id="j0Bbw4nHB6VMARSxLmfl-30" value="" style="endArrow=classic;html=1;rounded=0;" edge="1" parent="1">
          <mxGeometry width="50" height="50" relative="1" as="geometry">
            <mxPoint x="350" y="180" as="sourcePoint" />
            <mxPoint x="350" y="270" as="targetPoint" />
          </mxGeometry>
        </mxCell>
        <mxCell id="j0Bbw4nHB6VMARSxLmfl-31" value="" style="endArrow=classic;html=1;rounded=0;" edge="1" parent="1">
          <mxGeometry width="50" height="50" relative="1" as="geometry">
            <mxPoint x="477" y="179" as="sourcePoint" />
            <mxPoint x="477" y="269" as="targetPoint" />
          </mxGeometry>
        </mxCell>
        <mxCell id="j0Bbw4nHB6VMARSxLmfl-32" value="" style="endArrow=classic;html=1;rounded=0;" edge="1" parent="1">
          <mxGeometry width="50" height="50" relative="1" as="geometry">
            <mxPoint x="620" y="179" as="sourcePoint" />
            <mxPoint x="620" y="269" as="targetPoint" />
          </mxGeometry>
        </mxCell>
        <mxCell id="fzlm8aP7xHS5Cse8fQtx-3" value="Glue Crawler" style="sketch=0;outlineConnect=0;fontColor=#232F3E;gradientColor=none;fillColor=#8C4FFF;strokeColor=none;dashed=0;verticalLabelPosition=bottom;verticalAlign=top;align=center;html=1;fontSize=12;fontStyle=0;aspect=fixed;pointerEvents=1;shape=mxgraph.aws4.glue_crawlers;" vertex="1" parent="1">
          <mxGeometry x="370" y="70" width="52" height="52" as="geometry" />
        </mxCell>
        <mxCell id="fzlm8aP7xHS5Cse8fQtx-5" value="Data Catalog&lt;br&gt;" style="sketch=0;outlineConnect=0;fontColor=#232F3E;gradientColor=none;fillColor=#8C4FFF;strokeColor=none;dashed=0;verticalLabelPosition=bottom;verticalAlign=top;align=center;html=1;fontSize=12;fontStyle=0;aspect=fixed;pointerEvents=1;shape=mxgraph.aws4.glue_data_catalog;" vertex="1" parent="1">
          <mxGeometry x="470.00000000000006" y="70" width="52.62" height="57" as="geometry" />
        </mxCell>
        <mxCell id="fzlm8aP7xHS5Cse8fQtx-6" value="Glue" style="sketch=0;points=[[0,0,0],[0.25,0,0],[0.5,0,0],[0.75,0,0],[1,0,0],[0,1,0],[0.25,1,0],[0.5,1,0],[0.75,1,0],[1,1,0],[0,0.25,0],[0,0.5,0],[0,0.75,0],[1,0.25,0],[1,0.5,0],[1,0.75,0]];outlineConnect=0;fontColor=#232F3E;fillColor=#8C4FFF;strokeColor=#ffffff;dashed=0;verticalLabelPosition=bottom;verticalAlign=top;align=center;html=1;fontSize=12;fontStyle=0;aspect=fixed;shape=mxgraph.aws4.resourceIcon;resIcon=mxgraph.aws4.glue;" vertex="1" parent="1">
          <mxGeometry x="560" y="70" width="60" height="60" as="geometry" />
        </mxCell>
        <mxCell id="fzlm8aP7xHS5Cse8fQtx-9" value="" style="endArrow=none;html=1;rounded=0;startArrow=blockThin;startFill=1;endFill=0;" edge="1" parent="1">
          <mxGeometry width="50" height="50" relative="1" as="geometry">
            <mxPoint x="395.17" y="140" as="sourcePoint" />
            <mxPoint x="395.17" y="180" as="targetPoint" />
          </mxGeometry>
        </mxCell>
        <mxCell id="fzlm8aP7xHS5Cse8fQtx-10" value="" style="endArrow=none;html=1;rounded=0;startArrow=blockThin;startFill=1;endFill=0;" edge="1" parent="1">
          <mxGeometry width="50" height="50" relative="1" as="geometry">
            <mxPoint x="586.1700000000001" y="142" as="sourcePoint" />
            <mxPoint x="586.1700000000001" y="182" as="targetPoint" />
          </mxGeometry>
        </mxCell>
        <mxCell id="fzlm8aP7xHS5Cse8fQtx-11" value="" style="endArrow=classic;startArrow=classic;html=1;rounded=0;" edge="1" parent="1">
          <mxGeometry width="50" height="50" relative="1" as="geometry">
            <mxPoint x="423" y="90" as="sourcePoint" />
            <mxPoint x="470" y="90" as="targetPoint" />
          </mxGeometry>
        </mxCell>
        <mxCell id="fzlm8aP7xHS5Cse8fQtx-12" value="" style="endArrow=classic;startArrow=classic;html=1;rounded=0;" edge="1" parent="1">
          <mxGeometry width="50" height="50" relative="1" as="geometry">
            <mxPoint x="516" y="93" as="sourcePoint" />
            <mxPoint x="563" y="93" as="targetPoint" />
          </mxGeometry>
        </mxCell>
        <mxCell id="fzlm8aP7xHS5Cse8fQtx-13" value="Share data using lakeformation" style="text;html=1;strokeColor=none;fillColor=none;align=center;verticalAlign=middle;whiteSpace=wrap;rounded=0;" vertex="1" parent="1">
          <mxGeometry x="950" y="170" width="120" height="30" as="geometry" />
        </mxCell>
      </root>
    </mxGraphModel>
  </diagram>
  <diagram id="0oGlmwjIj4UfxU4mV7e1" name="Page-6">
    <mxGraphModel dx="633" dy="455" grid="1" gridSize="10" guides="1" tooltips="1" connect="1" arrows="1" fold="1" page="1" pageScale="1" pageWidth="1800" pageHeight="1200" math="0" shadow="0">
      <root>
        <mxCell id="0" />
        <mxCell id="1" parent="0" />
        <mxCell id="RvQZxEHjRKee3k-LZENt-9" value="" style="rounded=0;whiteSpace=wrap;html=1;dashed=1;" vertex="1" parent="1">
          <mxGeometry x="360" y="25" width="420" height="140" as="geometry" />
        </mxCell>
        <mxCell id="0SUkoB7weNgWIuVwa5_5-1" style="edgeStyle=orthogonalEdgeStyle;rounded=0;orthogonalLoop=1;jettySize=auto;html=1;" edge="1" parent="1" source="RvQZxEHjRKee3k-LZENt-10" target="l38RG87lBy_LLKeU7Sno-1">
          <mxGeometry relative="1" as="geometry" />
        </mxCell>
        <mxCell id="RvQZxEHjRKee3k-LZENt-10" value="Operational Data" style="rounded=0;whiteSpace=wrap;html=1;" vertex="1" parent="1">
          <mxGeometry x="380" y="40" width="120" height="110" as="geometry" />
        </mxCell>
        <mxCell id="0SUkoB7weNgWIuVwa5_5-3" style="edgeStyle=orthogonalEdgeStyle;rounded=0;orthogonalLoop=1;jettySize=auto;html=1;" edge="1" parent="1" source="l38RG87lBy_LLKeU7Sno-1" target="0SUkoB7weNgWIuVwa5_5-2">
          <mxGeometry relative="1" as="geometry">
            <Array as="points">
              <mxPoint x="750" y="70" />
              <mxPoint x="750" y="70" />
            </Array>
          </mxGeometry>
        </mxCell>
        <mxCell id="0SUkoB7weNgWIuVwa5_5-6" style="edgeStyle=orthogonalEdgeStyle;rounded=0;orthogonalLoop=1;jettySize=auto;html=1;entryX=0;entryY=0.75;entryDx=0;entryDy=0;" edge="1" parent="1" source="l38RG87lBy_LLKeU7Sno-1" target="0SUkoB7weNgWIuVwa5_5-4">
          <mxGeometry relative="1" as="geometry">
            <Array as="points">
              <mxPoint x="750" y="130" />
              <mxPoint x="750" y="130" />
            </Array>
          </mxGeometry>
        </mxCell>
        <mxCell id="l38RG87lBy_LLKeU7Sno-1" value="Data Product" style="rounded=0;whiteSpace=wrap;html=1;" vertex="1" parent="1">
          <mxGeometry x="620" y="40" width="120" height="110" as="geometry" />
        </mxCell>
        <mxCell id="0SUkoB7weNgWIuVwa5_5-2" value="" style="rounded=0;whiteSpace=wrap;html=1;" vertex="1" parent="1">
          <mxGeometry x="770" y="60" width="20" height="20" as="geometry" />
        </mxCell>
        <mxCell id="0SUkoB7weNgWIuVwa5_5-4" value="" style="rounded=0;whiteSpace=wrap;html=1;" vertex="1" parent="1">
          <mxGeometry x="770" y="115" width="20" height="20" as="geometry" />
        </mxCell>
        <mxCell id="0SUkoB7weNgWIuVwa5_5-9" value="Event" style="text;html=1;strokeColor=none;fillColor=none;align=center;verticalAlign=middle;whiteSpace=wrap;rounded=0;" vertex="1" parent="1">
          <mxGeometry x="790" y="55" width="60" height="30" as="geometry" />
        </mxCell>
        <mxCell id="0SUkoB7weNgWIuVwa5_5-10" value="API" style="text;html=1;strokeColor=none;fillColor=none;align=center;verticalAlign=middle;whiteSpace=wrap;rounded=0;" vertex="1" parent="1">
          <mxGeometry x="790" y="115" width="60" height="30" as="geometry" />
        </mxCell>
        <mxCell id="0SUkoB7weNgWIuVwa5_5-11" value="&lt;span style=&quot;color: rgb(0, 0, 0); font-family: Helvetica; font-size: 12px; font-style: normal; font-variant-ligatures: normal; font-variant-caps: normal; font-weight: 400; letter-spacing: normal; orphans: 2; text-align: center; text-indent: 0px; text-transform: none; widows: 2; word-spacing: 0px; -webkit-text-stroke-width: 0px; background-color: rgb(251, 251, 251); text-decoration-thickness: initial; text-decoration-style: initial; text-decoration-color: initial; float: none; display: inline !important;&quot;&gt;Domain&amp;nbsp;&lt;/span&gt;" style="text;whiteSpace=wrap;html=1;" vertex="1" parent="1">
          <mxGeometry x="550" width="90" height="40" as="geometry" />
        </mxCell>
      </root>
    </mxGraphModel>
  </diagram>
  <diagram id="toMtAWcp1ppGB3m-NnbF" name="system-architecture">
    <mxGraphModel dx="904" dy="650" grid="1" gridSize="10" guides="1" tooltips="1" connect="1" arrows="1" fold="1" page="1" pageScale="1" pageWidth="1800" pageHeight="1200" math="0" shadow="0">
      <root>
        <mxCell id="0" />
        <mxCell id="1" parent="0" />
        <mxCell id="Wrw5N9gPLRu_zKswX61k-1" value="" style="rounded=0;whiteSpace=wrap;html=1;dashed=1;" vertex="1" parent="1">
          <mxGeometry x="280" y="580" width="610" height="120" as="geometry" />
        </mxCell>
        <mxCell id="KbSoj2yFdUr7IBYBaYJr-1" value="Online Booking" style="rounded=0;whiteSpace=wrap;html=1;verticalAlign=middle;" vertex="1" parent="1">
          <mxGeometry x="300" y="630" width="120" height="45" as="geometry" />
        </mxCell>
        <mxCell id="Wrw5N9gPLRu_zKswX61k-2" value="Source Alighned Domain" style="text;html=1;strokeColor=none;fillColor=none;align=center;verticalAlign=middle;whiteSpace=wrap;rounded=0;" vertex="1" parent="1">
          <mxGeometry x="505" y="590" width="110" height="30" as="geometry" />
        </mxCell>
        <mxCell id="ffWZmjWmf9bjd0SpjOvd-2" value="Loyalty" style="rounded=0;whiteSpace=wrap;html=1;verticalAlign=middle;" vertex="1" parent="1">
          <mxGeometry x="440" y="630" width="120" height="45" as="geometry" />
        </mxCell>
        <mxCell id="ffWZmjWmf9bjd0SpjOvd-3" value="Domain (n)" style="rounded=0;whiteSpace=wrap;html=1;verticalAlign=middle;" vertex="1" parent="1">
          <mxGeometry x="760" y="630" width="120" height="45" as="geometry" />
        </mxCell>
        <mxCell id="ffWZmjWmf9bjd0SpjOvd-4" value="Contact Center" style="rounded=0;whiteSpace=wrap;html=1;verticalAlign=middle;" vertex="1" parent="1">
          <mxGeometry x="580" y="630" width="120" height="45" as="geometry" />
        </mxCell>
        <mxCell id="ffWZmjWmf9bjd0SpjOvd-6" value=". . . . .&amp;nbsp;" style="text;html=1;strokeColor=none;fillColor=none;align=center;verticalAlign=middle;whiteSpace=wrap;rounded=0;horizontal=1;fontStyle=1" vertex="1" parent="1">
          <mxGeometry x="700" y="632.5" width="60" height="40" as="geometry" />
        </mxCell>
        <mxCell id="ffWZmjWmf9bjd0SpjOvd-14" value="" style="rounded=0;whiteSpace=wrap;html=1;dashed=1;" vertex="1" parent="1">
          <mxGeometry x="280" y="450" width="610" height="110" as="geometry" />
        </mxCell>
        <mxCell id="jV_t_wZXmRgPCsSHcAf_-10" style="edgeStyle=orthogonalEdgeStyle;rounded=0;orthogonalLoop=1;jettySize=auto;html=1;entryX=0.5;entryY=0;entryDx=0;entryDy=0;" edge="1" parent="1" source="ffWZmjWmf9bjd0SpjOvd-15" target="KbSoj2yFdUr7IBYBaYJr-1">
          <mxGeometry relative="1" as="geometry" />
        </mxCell>
        <mxCell id="ffWZmjWmf9bjd0SpjOvd-15" value="Recommendations" style="rounded=0;whiteSpace=wrap;html=1;verticalAlign=middle;" vertex="1" parent="1">
          <mxGeometry x="300" y="485" width="120" height="45" as="geometry" />
        </mxCell>
        <mxCell id="ffWZmjWmf9bjd0SpjOvd-16" value="Aggregate Domain" style="text;html=1;strokeColor=none;fillColor=none;align=center;verticalAlign=middle;whiteSpace=wrap;rounded=0;" vertex="1" parent="1">
          <mxGeometry x="510" y="450" width="110" height="30" as="geometry" />
        </mxCell>
        <mxCell id="ffWZmjWmf9bjd0SpjOvd-17" value="Customer 360" style="rounded=0;whiteSpace=wrap;html=1;verticalAlign=middle;" vertex="1" parent="1">
          <mxGeometry x="480" y="482.5" width="120" height="45" as="geometry" />
        </mxCell>
        <mxCell id="jV_t_wZXmRgPCsSHcAf_-1" value="" style="rounded=0;whiteSpace=wrap;html=1;dashed=1;" vertex="1" parent="1">
          <mxGeometry x="280" y="300" width="610" height="130" as="geometry" />
        </mxCell>
        <mxCell id="OiymVb6c6PWO1vccyhg8-1" style="rounded=0;orthogonalLoop=1;jettySize=auto;html=1;entryX=0.5;entryY=0;entryDx=0;entryDy=0;" edge="1" parent="1" source="jV_t_wZXmRgPCsSHcAf_-2" target="ffWZmjWmf9bjd0SpjOvd-17">
          <mxGeometry relative="1" as="geometry" />
        </mxCell>
        <mxCell id="jV_t_wZXmRgPCsSHcAf_-2" value="Marketing" style="rounded=0;whiteSpace=wrap;html=1;verticalAlign=middle;" vertex="1" parent="1">
          <mxGeometry x="300" y="342.5" width="120" height="45" as="geometry" />
        </mxCell>
        <mxCell id="jV_t_wZXmRgPCsSHcAf_-3" value="Consumer Aligned Domain" style="text;html=1;strokeColor=none;fillColor=none;align=center;verticalAlign=middle;whiteSpace=wrap;rounded=0;" vertex="1" parent="1">
          <mxGeometry x="520" y="300" width="110" height="30" as="geometry" />
        </mxCell>
        <mxCell id="OiymVb6c6PWO1vccyhg8-3" style="rounded=0;orthogonalLoop=1;jettySize=auto;html=1;" edge="1" parent="1" source="jV_t_wZXmRgPCsSHcAf_-4" target="ffWZmjWmf9bjd0SpjOvd-3">
          <mxGeometry relative="1" as="geometry" />
        </mxCell>
        <mxCell id="jV_t_wZXmRgPCsSHcAf_-4" value="Analytics" style="rounded=0;whiteSpace=wrap;html=1;verticalAlign=middle;" vertex="1" parent="1">
          <mxGeometry x="480" y="342.5" width="120" height="45" as="geometry" />
        </mxCell>
        <mxCell id="OiymVb6c6PWO1vccyhg8-4" style="edgeStyle=orthogonalEdgeStyle;rounded=0;orthogonalLoop=1;jettySize=auto;html=1;" edge="1" parent="1" source="jV_t_wZXmRgPCsSHcAf_-5" target="jV_t_wZXmRgPCsSHcAf_-8">
          <mxGeometry relative="1" as="geometry" />
        </mxCell>
        <mxCell id="OiymVb6c6PWO1vccyhg8-5" style="rounded=0;orthogonalLoop=1;jettySize=auto;html=1;entryX=0.5;entryY=0;entryDx=0;entryDy=0;" edge="1" parent="1" source="jV_t_wZXmRgPCsSHcAf_-5" target="ffWZmjWmf9bjd0SpjOvd-4">
          <mxGeometry relative="1" as="geometry" />
        </mxCell>
        <mxCell id="jV_t_wZXmRgPCsSHcAf_-5" value="Product n" style="rounded=0;whiteSpace=wrap;html=1;verticalAlign=middle;" vertex="1" parent="1">
          <mxGeometry x="750" y="342.5" width="120" height="45" as="geometry" />
        </mxCell>
        <mxCell id="VGxMDGR1uU7hebTfGORA-4" style="rounded=0;orthogonalLoop=1;jettySize=auto;html=1;entryX=0.5;entryY=0;entryDx=0;entryDy=0;" edge="1" parent="1" source="jV_t_wZXmRgPCsSHcAf_-8" target="ffWZmjWmf9bjd0SpjOvd-4">
          <mxGeometry relative="1" as="geometry" />
        </mxCell>
        <mxCell id="VGxMDGR1uU7hebTfGORA-5" style="rounded=0;orthogonalLoop=1;jettySize=auto;html=1;entryX=0.5;entryY=0;entryDx=0;entryDy=0;" edge="1" parent="1" source="jV_t_wZXmRgPCsSHcAf_-8" target="ffWZmjWmf9bjd0SpjOvd-3">
          <mxGeometry relative="1" as="geometry" />
        </mxCell>
        <mxCell id="jV_t_wZXmRgPCsSHcAf_-8" value="Domain (n)" style="rounded=0;whiteSpace=wrap;html=1;verticalAlign=middle;" vertex="1" parent="1">
          <mxGeometry x="755" y="485" width="120" height="45" as="geometry" />
        </mxCell>
        <mxCell id="jV_t_wZXmRgPCsSHcAf_-9" value=". . . . .&amp;nbsp;" style="text;html=1;strokeColor=none;fillColor=none;align=center;verticalAlign=middle;whiteSpace=wrap;rounded=0;horizontal=1;fontStyle=1" vertex="1" parent="1">
          <mxGeometry x="620" y="487.5" width="60" height="40" as="geometry" />
        </mxCell>
        <mxCell id="VGxMDGR1uU7hebTfGORA-1" style="rounded=0;orthogonalLoop=1;jettySize=auto;html=1;entryX=0.382;entryY=0.105;entryDx=0;entryDy=0;entryPerimeter=0;" edge="1" parent="1" source="ffWZmjWmf9bjd0SpjOvd-15" target="ffWZmjWmf9bjd0SpjOvd-2">
          <mxGeometry relative="1" as="geometry" />
        </mxCell>
        <mxCell id="VGxMDGR1uU7hebTfGORA-2" style="rounded=0;orthogonalLoop=1;jettySize=auto;html=1;entryX=0.618;entryY=0.045;entryDx=0;entryDy=0;entryPerimeter=0;" edge="1" parent="1" source="ffWZmjWmf9bjd0SpjOvd-17" target="KbSoj2yFdUr7IBYBaYJr-1">
          <mxGeometry relative="1" as="geometry" />
        </mxCell>
        <mxCell id="VGxMDGR1uU7hebTfGORA-3" style="rounded=0;orthogonalLoop=1;jettySize=auto;html=1;entryX=0.28;entryY=1.401;entryDx=0;entryDy=0;entryPerimeter=0;" edge="1" parent="1" source="ffWZmjWmf9bjd0SpjOvd-17" target="Wrw5N9gPLRu_zKswX61k-2">
          <mxGeometry relative="1" as="geometry" />
        </mxCell>
        <mxCell id="OiymVb6c6PWO1vccyhg8-2" style="rounded=0;orthogonalLoop=1;jettySize=auto;html=1;entryX=0.886;entryY=0.125;entryDx=0;entryDy=0;entryPerimeter=0;" edge="1" parent="1" source="jV_t_wZXmRgPCsSHcAf_-4" target="KbSoj2yFdUr7IBYBaYJr-1">
          <mxGeometry relative="1" as="geometry" />
        </mxCell>
      </root>
    </mxGraphModel>
  </diagram>
  <diagram id="cg1AVn0XLGUBw9lShWDu" name="Page-3">
    <mxGraphModel dx="633" dy="455" grid="1" gridSize="10" guides="1" tooltips="1" connect="1" arrows="1" fold="1" page="1" pageScale="1" pageWidth="1800" pageHeight="1200" math="0" shadow="0">
      <root>
        <mxCell id="0" />
        <mxCell id="1" parent="0" />
        <mxCell id="P10bMkjHZPXhU92JuPJl-1" value="Customer 360 View" style="rounded=0;whiteSpace=wrap;align=center;" parent="1" vertex="1">
          <mxGeometry x="340" y="326.5" width="120" height="60" as="geometry" />
        </mxCell>
        <mxCell id="P10bMkjHZPXhU92JuPJl-2" value="Machine Learning (Personalisation, Segmentation, Next best Action, sentiment analysis)" style="rounded=0;whiteSpace=wrap;align=center;" parent="1" vertex="1">
          <mxGeometry x="340" y="200" width="120" height="107" as="geometry" />
        </mxCell>
        <mxCell id="BiYmTBRvHqzDwEV25lez-1" value="3rd Party " style="rounded=0;whiteSpace=wrap;align=center;" parent="1" vertex="1">
          <mxGeometry x="340" y="650" width="120" height="40" as="geometry" />
        </mxCell>
        <mxCell id="BiYmTBRvHqzDwEV25lez-2" value="Customer timeline View" style="rounded=0;whiteSpace=wrap;align=center;" parent="1" vertex="1">
          <mxGeometry x="340" y="405" width="120" height="60" as="geometry" />
        </mxCell>
        <mxCell id="tEjxr6kDrl5vycQJCRzH-1" value="Loyalty" style="rounded=0;whiteSpace=wrap;html=1;verticalAlign=middle;" parent="1" vertex="1">
          <mxGeometry x="60" y="70" width="120" height="45" as="geometry" />
        </mxCell>
        <mxCell id="tEjxr6kDrl5vycQJCRzH-2" value="Booking Systems" style="rounded=0;whiteSpace=wrap;html=1;verticalAlign=middle;" parent="1" vertex="1">
          <mxGeometry x="60" y="138.5" width="120" height="45" as="geometry" />
        </mxCell>
        <mxCell id="tEjxr6kDrl5vycQJCRzH-3" value="Contact Centre System" style="rounded=0;whiteSpace=wrap;html=1;verticalAlign=middle;" parent="1" vertex="1">
          <mxGeometry x="60" y="200" width="120" height="45" as="geometry" />
        </mxCell>
        <mxCell id="tEjxr6kDrl5vycQJCRzH-4" value="Passenger Reservation" style="rounded=0;whiteSpace=wrap;html=1;verticalAlign=middle;" parent="1" vertex="1">
          <mxGeometry x="60" y="262" width="120" height="45" as="geometry" />
        </mxCell>
        <mxCell id="tEjxr6kDrl5vycQJCRzH-5" value="Inflight Retail" style="rounded=0;whiteSpace=wrap;html=1;verticalAlign=middle;" parent="1" vertex="1">
          <mxGeometry x="60" y="334" width="120" height="45" as="geometry" />
        </mxCell>
        <mxCell id="tEjxr6kDrl5vycQJCRzH-6" value="Meal Order System Integration" style="rounded=0;whiteSpace=wrap;html=1;verticalAlign=middle;" parent="1" vertex="1">
          <mxGeometry x="60" y="395" width="120" height="45" as="geometry" />
        </mxCell>
        <mxCell id="tEjxr6kDrl5vycQJCRzH-7" value="Offer Management System" style="rounded=0;whiteSpace=wrap;html=1;verticalAlign=middle;" parent="1" vertex="1">
          <mxGeometry x="60" y="460" width="120" height="45" as="geometry" />
        </mxCell>
        <mxCell id="tEjxr6kDrl5vycQJCRzH-8" value="Marketing Management System" style="rounded=0;whiteSpace=wrap;html=1;verticalAlign=middle;" parent="1" vertex="1">
          <mxGeometry x="60" y="525" width="120" height="45" as="geometry" />
        </mxCell>
        <mxCell id="tEjxr6kDrl5vycQJCRzH-9" value="Baggage Management and Handling Systems" style="rounded=0;whiteSpace=wrap;html=1;verticalAlign=middle;" parent="1" vertex="1">
          <mxGeometry x="60" y="720" width="120" height="45" as="geometry" />
        </mxCell>
        <mxCell id="tEjxr6kDrl5vycQJCRzH-10" value="Knowledge Base&amp;nbsp;" style="rounded=0;whiteSpace=wrap;html=1;verticalAlign=middle;" parent="1" vertex="1">
          <mxGeometry x="60" y="655" width="120" height="45" as="geometry" />
        </mxCell>
        <mxCell id="tEjxr6kDrl5vycQJCRzH-11" value="Agent-based and Self-Service Check-in Systems" style="rounded=0;whiteSpace=wrap;html=1;verticalAlign=middle;" parent="1" vertex="1">
          <mxGeometry x="60" y="590" width="120" height="45" as="geometry" />
        </mxCell>
        <mxCell id="tEjxr6kDrl5vycQJCRzH-12" value="Social Media" style="rounded=0;whiteSpace=wrap;html=1;verticalAlign=middle;" parent="1" vertex="1">
          <mxGeometry x="340" y="80" width="120" height="45" as="geometry" />
        </mxCell>
        <mxCell id="tEjxr6kDrl5vycQJCRzH-13" value="Compensation Management" style="rounded=0;whiteSpace=wrap;align=center;html=1;" parent="1" vertex="1">
          <mxGeometry x="340" y="575" width="120" height="60" as="geometry" />
        </mxCell>
        <mxCell id="tEjxr6kDrl5vycQJCRzH-14" value="Case Management" style="rounded=0;whiteSpace=wrap;align=center;fontStyle=0;fontColor=default;html=1;" parent="1" vertex="1">
          <mxGeometry x="340" y="495" width="120" height="60" as="geometry" />
        </mxCell>
        <mxCell id="eD4TLKhzG8_-86nX8ZKs-1" value="Business Analytics" style="rounded=0;whiteSpace=wrap;align=center;" parent="1" vertex="1">
          <mxGeometry x="340" y="140" width="120" height="43.5" as="geometry" />
        </mxCell>
        <mxCell id="h42oEg-epdj2JUISOZ-5-1" value="Data Mesh" style="rounded=0;whiteSpace=wrap;html=1;verticalAlign=middle;" parent="1" vertex="1">
          <mxGeometry x="200" y="200" width="120" height="565" as="geometry" />
        </mxCell>
        <mxCell id="h42oEg-epdj2JUISOZ-5-2" value="Notification" style="rounded=0;whiteSpace=wrap;html=1;verticalAlign=middle;" parent="1" vertex="1">
          <mxGeometry x="70" y="860" width="120" height="45" as="geometry" />
        </mxCell>
        <mxCell id="h42oEg-epdj2JUISOZ-5-3" value="Identity Management" style="rounded=0;whiteSpace=wrap;html=1;verticalAlign=middle;" parent="1" vertex="1">
          <mxGeometry x="70" y="800" width="120" height="45" as="geometry" />
        </mxCell>
        <mxCell id="h42oEg-epdj2JUISOZ-5-4" value="Monitoring" style="rounded=0;whiteSpace=wrap;html=1;verticalAlign=middle;" parent="1" vertex="1">
          <mxGeometry x="70" y="930" width="120" height="45" as="geometry" />
        </mxCell>
        <mxCell id="h42oEg-epdj2JUISOZ-5-5" value="Observability" style="rounded=0;whiteSpace=wrap;html=1;verticalAlign=middle;" parent="1" vertex="1">
          <mxGeometry x="70" y="1000" width="120" height="45" as="geometry" />
        </mxCell>
      </root>
    </mxGraphModel>
  </diagram>
  <diagram id="G_GHp0isl0ewmFJEVwIW" name="Page-4">
    <mxGraphModel dx="2704" dy="650" grid="1" gridSize="10" guides="1" tooltips="1" connect="1" arrows="1" fold="1" page="1" pageScale="1" pageWidth="1800" pageHeight="1200" math="0" shadow="0">
      <root>
        <mxCell id="0" />
        <mxCell id="1" parent="0" />
        <mxCell id="NF-7DvjuFSE7Az9D5ovp-1" style="edgeStyle=orthogonalEdgeStyle;rounded=0;orthogonalLoop=1;jettySize=auto;html=1;entryX=0.5;entryY=0;entryDx=0;entryDy=0;" parent="1" source="6TqJqgZP9lVRmJi1N0Gi-1" target="6TqJqgZP9lVRmJi1N0Gi-3" edge="1">
          <mxGeometry relative="1" as="geometry" />
        </mxCell>
        <mxCell id="6TqJqgZP9lVRmJi1N0Gi-1" value="Case Management" style="rounded=0;whiteSpace=wrap;align=center;fontStyle=0;fontColor=default;html=1;" parent="1" vertex="1">
          <mxGeometry x="200" y="390" width="120" height="70" as="geometry" />
        </mxCell>
        <mxCell id="6TqJqgZP9lVRmJi1N0Gi-5" style="edgeStyle=orthogonalEdgeStyle;rounded=0;orthogonalLoop=1;jettySize=auto;html=1;" parent="1" source="6TqJqgZP9lVRmJi1N0Gi-2" target="6TqJqgZP9lVRmJi1N0Gi-1" edge="1">
          <mxGeometry relative="1" as="geometry" />
        </mxCell>
        <mxCell id="6TqJqgZP9lVRmJi1N0Gi-2" value="Case Support Executive" style="sketch=0;outlineConnect=0;fontColor=#232F3E;gradientColor=none;strokeColor=#232F3E;fillColor=#ffffff;dashed=0;verticalLabelPosition=bottom;verticalAlign=top;align=center;html=1;fontSize=12;fontStyle=0;aspect=fixed;shape=mxgraph.aws4.resourceIcon;resIcon=mxgraph.aws4.user;" parent="1" vertex="1">
          <mxGeometry x="70" y="395" width="60" height="60" as="geometry" />
        </mxCell>
        <mxCell id="6TqJqgZP9lVRmJi1N0Gi-3" value="Notification" style="rounded=0;whiteSpace=wrap;align=center;fontStyle=0;fontColor=default;html=1;" parent="1" vertex="1">
          <mxGeometry x="200" y="550" width="120" height="60" as="geometry" />
        </mxCell>
        <mxCell id="NF-7DvjuFSE7Az9D5ovp-3" style="edgeStyle=orthogonalEdgeStyle;rounded=0;orthogonalLoop=1;jettySize=auto;html=1;entryX=0.5;entryY=0;entryDx=0;entryDy=0;exitX=0.5;exitY=1;exitDx=0;exitDy=0;" parent="1" source="NF-7DvjuFSE7Az9D5ovp-2" target="6TqJqgZP9lVRmJi1N0Gi-1" edge="1">
          <mxGeometry relative="1" as="geometry">
            <mxPoint x="260" y="330" as="sourcePoint" />
          </mxGeometry>
        </mxCell>
        <mxCell id="NF-7DvjuFSE7Az9D5ovp-2" value="Contact Center" style="rounded=0;whiteSpace=wrap;align=center;fontStyle=0;fontColor=default;html=1;" parent="1" vertex="1">
          <mxGeometry x="200" y="270" width="120" height="60" as="geometry" />
        </mxCell>
        <mxCell id="NF-7DvjuFSE7Az9D5ovp-6" style="edgeStyle=orthogonalEdgeStyle;rounded=0;orthogonalLoop=1;jettySize=auto;html=1;entryX=0;entryY=0.5;entryDx=0;entryDy=0;" parent="1" source="NF-7DvjuFSE7Az9D5ovp-4" target="NF-7DvjuFSE7Az9D5ovp-2" edge="1">
          <mxGeometry relative="1" as="geometry" />
        </mxCell>
        <mxCell id="NF-7DvjuFSE7Az9D5ovp-4" value="Customer Support Representatives" style="sketch=0;outlineConnect=0;fontColor=#232F3E;gradientColor=none;strokeColor=#232F3E;fillColor=#ffffff;dashed=0;verticalLabelPosition=bottom;verticalAlign=top;align=center;html=1;fontSize=12;fontStyle=0;aspect=fixed;shape=mxgraph.aws4.resourceIcon;resIcon=mxgraph.aws4.user;" parent="1" vertex="1">
          <mxGeometry x="60" y="270" width="60" height="60" as="geometry" />
        </mxCell>
        <mxCell id="NF-7DvjuFSE7Az9D5ovp-10" style="edgeStyle=orthogonalEdgeStyle;rounded=0;orthogonalLoop=1;jettySize=auto;html=1;entryX=0.5;entryY=0;entryDx=0;entryDy=0;" parent="1" source="NF-7DvjuFSE7Az9D5ovp-7" target="NF-7DvjuFSE7Az9D5ovp-2" edge="1">
          <mxGeometry relative="1" as="geometry" />
        </mxCell>
        <mxCell id="NF-7DvjuFSE7Az9D5ovp-7" value="" style="html=1;verticalLabelPosition=bottom;align=center;labelBackgroundColor=#ffffff;verticalAlign=top;strokeWidth=2;strokeColor=#0080F0;shadow=0;dashed=0;shape=mxgraph.ios7.icons.mail;" parent="1" vertex="1">
          <mxGeometry x="160" y="170" width="40" height="30" as="geometry" />
        </mxCell>
        <mxCell id="NF-7DvjuFSE7Az9D5ovp-9" style="edgeStyle=orthogonalEdgeStyle;rounded=0;orthogonalLoop=1;jettySize=auto;html=1;entryX=0.5;entryY=0;entryDx=0;entryDy=0;" parent="1" source="NF-7DvjuFSE7Az9D5ovp-8" target="NF-7DvjuFSE7Az9D5ovp-2" edge="1">
          <mxGeometry relative="1" as="geometry" />
        </mxCell>
        <mxCell id="NF-7DvjuFSE7Az9D5ovp-8" value="" style="fontColor=#0066CC;verticalAlign=top;verticalLabelPosition=bottom;labelPosition=center;align=center;html=1;outlineConnect=0;fillColor=#CCCCCC;strokeColor=#6881B3;gradientColor=none;gradientDirection=north;strokeWidth=2;shape=mxgraph.networks.phone_1;" parent="1" vertex="1">
          <mxGeometry x="300" y="170" width="60" height="30" as="geometry" />
        </mxCell>
        <mxCell id="rBF1HibCUOOwJcyDcl74-4" style="edgeStyle=orthogonalEdgeStyle;rounded=0;orthogonalLoop=1;jettySize=auto;html=1;entryX=1;entryY=0.5;entryDx=0;entryDy=0;" parent="1" source="rBF1HibCUOOwJcyDcl74-1" target="6TqJqgZP9lVRmJi1N0Gi-1" edge="1">
          <mxGeometry relative="1" as="geometry">
            <mxPoint x="440" y="110" as="sourcePoint" />
            <mxPoint x="440" y="390" as="targetPoint" />
            <Array as="points">
              <mxPoint x="420" y="80" />
              <mxPoint x="420" y="425" />
            </Array>
          </mxGeometry>
        </mxCell>
        <mxCell id="rBF1HibCUOOwJcyDcl74-1" value="User" style="sketch=0;outlineConnect=0;fontColor=#232F3E;gradientColor=none;strokeColor=#232F3E;fillColor=#ffffff;dashed=0;verticalLabelPosition=bottom;verticalAlign=top;align=center;html=1;fontSize=12;fontStyle=0;aspect=fixed;shape=mxgraph.aws4.resourceIcon;resIcon=mxgraph.aws4.user;" parent="1" vertex="1">
          <mxGeometry x="230" y="50" width="60" height="60" as="geometry" />
        </mxCell>
        <mxCell id="rBF1HibCUOOwJcyDcl74-2" style="edgeStyle=orthogonalEdgeStyle;rounded=0;orthogonalLoop=1;jettySize=auto;html=1;entryX=0.344;entryY=0.004;entryDx=0;entryDy=0;entryPerimeter=0;" parent="1" source="rBF1HibCUOOwJcyDcl74-1" target="NF-7DvjuFSE7Az9D5ovp-7" edge="1">
          <mxGeometry relative="1" as="geometry" />
        </mxCell>
        <mxCell id="rBF1HibCUOOwJcyDcl74-3" style="edgeStyle=orthogonalEdgeStyle;rounded=0;orthogonalLoop=1;jettySize=auto;html=1;entryX=0.5;entryY=0;entryDx=0;entryDy=0;entryPerimeter=0;" parent="1" source="rBF1HibCUOOwJcyDcl74-1" target="NF-7DvjuFSE7Az9D5ovp-8" edge="1">
          <mxGeometry relative="1" as="geometry" />
        </mxCell>
      </root>
    </mxGraphModel>
  </diagram>
  <diagram id="N9np7-wykjqM0w062EW9" name="microservice-reference-architecture">
    <mxGraphModel dx="904" dy="650" grid="1" gridSize="10" guides="1" tooltips="1" connect="1" arrows="1" fold="1" page="1" pageScale="1" pageWidth="1800" pageHeight="1200" math="0" shadow="0">
      <root>
        <mxCell id="0" />
        <mxCell id="1" parent="0" />
        <mxCell id="HHs6U-DJAntEDKrEq0iH-9" value="" style="rounded=0;whiteSpace=wrap;html=1;dashed=1;" vertex="1" parent="1">
          <mxGeometry x="610" y="27.5" width="110" height="112.5" as="geometry" />
        </mxCell>
        <mxCell id="HHs6U-DJAntEDKrEq0iH-6" value="" style="rounded=0;whiteSpace=wrap;html=1;dashed=1;" vertex="1" parent="1">
          <mxGeometry x="360" y="30" width="110" height="110" as="geometry" />
        </mxCell>
        <mxCell id="jEJzkhLZVV5mAa2VMmeR-23" value="" style="rounded=0;whiteSpace=wrap;html=1;dashed=1;" vertex="1" parent="1">
          <mxGeometry x="730" y="170" width="230" height="270" as="geometry" />
        </mxCell>
        <mxCell id="jEJzkhLZVV5mAa2VMmeR-21" value="" style="rounded=0;whiteSpace=wrap;html=1;dashed=1;" vertex="1" parent="1">
          <mxGeometry x="360" y="170" width="360" height="270" as="geometry" />
        </mxCell>
        <mxCell id="jEJzkhLZVV5mAa2VMmeR-19" value="" style="rounded=0;whiteSpace=wrap;html=1;dashed=1;" vertex="1" parent="1">
          <mxGeometry x="220" y="50" width="120" height="390" as="geometry" />
        </mxCell>
        <mxCell id="jEJzkhLZVV5mAa2VMmeR-8" value="CloudFront" style="sketch=0;points=[[0,0,0],[0.25,0,0],[0.5,0,0],[0.75,0,0],[1,0,0],[0,1,0],[0.25,1,0],[0.5,1,0],[0.75,1,0],[1,1,0],[0,0.25,0],[0,0.5,0],[0,0.75,0],[1,0.25,0],[1,0.5,0],[1,0.75,0]];outlineConnect=0;fontColor=#232F3E;fillColor=#8C4FFF;strokeColor=#ffffff;dashed=0;verticalLabelPosition=bottom;verticalAlign=top;align=center;html=1;fontSize=12;fontStyle=0;aspect=fixed;shape=mxgraph.aws4.resourceIcon;resIcon=mxgraph.aws4.cloudfront;" vertex="1" parent="1">
          <mxGeometry x="251" y="205" width="58" height="58" as="geometry" />
        </mxCell>
        <mxCell id="jEJzkhLZVV5mAa2VMmeR-12" style="edgeStyle=orthogonalEdgeStyle;rounded=0;orthogonalLoop=1;jettySize=auto;html=1;" edge="1" parent="1" source="jEJzkhLZVV5mAa2VMmeR-1" target="jEJzkhLZVV5mAa2VMmeR-2">
          <mxGeometry relative="1" as="geometry" />
        </mxCell>
        <mxCell id="jEJzkhLZVV5mAa2VMmeR-1" value="API Gateway" style="sketch=0;points=[[0,0,0],[0.25,0,0],[0.5,0,0],[0.75,0,0],[1,0,0],[0,1,0],[0.25,1,0],[0.5,1,0],[0.75,1,0],[1,1,0],[0,0.25,0],[0,0.5,0],[0,0.75,0],[1,0.25,0],[1,0.5,0],[1,0.75,0]];outlineConnect=0;fontColor=#232F3E;fillColor=#8C4FFF;strokeColor=#ffffff;dashed=0;verticalLabelPosition=bottom;verticalAlign=top;align=center;html=1;fontSize=12;fontStyle=0;aspect=fixed;shape=mxgraph.aws4.resourceIcon;resIcon=mxgraph.aws4.api_gateway;" vertex="1" parent="1">
          <mxGeometry x="390" y="205" width="50" height="50" as="geometry" />
        </mxCell>
        <mxCell id="jEJzkhLZVV5mAa2VMmeR-13" style="edgeStyle=orthogonalEdgeStyle;rounded=0;orthogonalLoop=1;jettySize=auto;html=1;" edge="1" parent="1" source="jEJzkhLZVV5mAa2VMmeR-2" target="jEJzkhLZVV5mAa2VMmeR-3">
          <mxGeometry relative="1" as="geometry" />
        </mxCell>
        <mxCell id="jEJzkhLZVV5mAa2VMmeR-2" value="Application Load Balancer" style="sketch=0;outlineConnect=0;fontColor=#232F3E;gradientColor=none;fillColor=#8C4FFF;strokeColor=none;dashed=0;verticalLabelPosition=bottom;verticalAlign=top;align=center;html=1;fontSize=12;fontStyle=0;aspect=fixed;pointerEvents=1;shape=mxgraph.aws4.application_load_balancer;" vertex="1" parent="1">
          <mxGeometry x="510" y="205" width="50" height="50" as="geometry" />
        </mxCell>
        <mxCell id="jEJzkhLZVV5mAa2VMmeR-3" value="AWS Fargate" style="sketch=0;points=[[0,0,0],[0.25,0,0],[0.5,0,0],[0.75,0,0],[1,0,0],[0,1,0],[0.25,1,0],[0.5,1,0],[0.75,1,0],[1,1,0],[0,0.25,0],[0,0.5,0],[0,0.75,0],[1,0.25,0],[1,0.5,0],[1,0.75,0]];outlineConnect=0;fontColor=#232F3E;fillColor=#ED7100;strokeColor=#ffffff;dashed=0;verticalLabelPosition=bottom;verticalAlign=top;align=center;html=1;fontSize=12;fontStyle=0;aspect=fixed;shape=mxgraph.aws4.resourceIcon;resIcon=mxgraph.aws4.fargate;" vertex="1" parent="1">
          <mxGeometry x="640" y="205" width="50" height="50" as="geometry" />
        </mxCell>
        <mxCell id="jEJzkhLZVV5mAa2VMmeR-4" value="Aurora" style="sketch=0;points=[[0,0,0],[0.25,0,0],[0.5,0,0],[0.75,0,0],[1,0,0],[0,1,0],[0.25,1,0],[0.5,1,0],[0.75,1,0],[1,1,0],[0,0.25,0],[0,0.5,0],[0,0.75,0],[1,0.25,0],[1,0.5,0],[1,0.75,0]];outlineConnect=0;fontColor=#232F3E;fillColor=#C925D1;strokeColor=#ffffff;dashed=0;verticalLabelPosition=bottom;verticalAlign=top;align=center;html=1;fontSize=12;fontStyle=0;aspect=fixed;shape=mxgraph.aws4.resourceIcon;resIcon=mxgraph.aws4.aurora;" vertex="1" parent="1">
          <mxGeometry x="800" y="200" width="60" height="60" as="geometry" />
        </mxCell>
        <mxCell id="jEJzkhLZVV5mAa2VMmeR-5" value="Dynamo DB" style="outlineConnect=0;dashed=0;verticalLabelPosition=bottom;verticalAlign=top;align=center;html=1;shape=mxgraph.aws3.dynamo_db;fillColor=#2E73B8;gradientColor=none;" vertex="1" parent="1">
          <mxGeometry x="795" y="330" width="55" height="50" as="geometry" />
        </mxCell>
        <mxCell id="jEJzkhLZVV5mAa2VMmeR-10" style="edgeStyle=orthogonalEdgeStyle;rounded=0;orthogonalLoop=1;jettySize=auto;html=1;" edge="1" parent="1" source="jEJzkhLZVV5mAa2VMmeR-9" target="jEJzkhLZVV5mAa2VMmeR-8">
          <mxGeometry relative="1" as="geometry" />
        </mxCell>
        <mxCell id="jEJzkhLZVV5mAa2VMmeR-9" value="S3" style="sketch=0;points=[[0,0,0],[0.25,0,0],[0.5,0,0],[0.75,0,0],[1,0,0],[0,1,0],[0.25,1,0],[0.5,1,0],[0.75,1,0],[1,1,0],[0,0.25,0],[0,0.5,0],[0,0.75,0],[1,0.25,0],[1,0.5,0],[1,0.75,0]];outlineConnect=0;fontColor=#232F3E;fillColor=#7AA116;strokeColor=#ffffff;dashed=0;verticalLabelPosition=bottom;verticalAlign=top;align=center;html=1;fontSize=12;fontStyle=0;aspect=fixed;shape=mxgraph.aws4.resourceIcon;resIcon=mxgraph.aws4.s3;" vertex="1" parent="1">
          <mxGeometry x="250" y="335" width="60" height="60" as="geometry" />
        </mxCell>
        <mxCell id="jEJzkhLZVV5mAa2VMmeR-11" style="edgeStyle=orthogonalEdgeStyle;rounded=0;orthogonalLoop=1;jettySize=auto;html=1;" edge="1" parent="1" source="jEJzkhLZVV5mAa2VMmeR-8">
          <mxGeometry relative="1" as="geometry">
            <mxPoint x="380" y="233" as="targetPoint" />
          </mxGeometry>
        </mxCell>
        <mxCell id="jEJzkhLZVV5mAa2VMmeR-14" style="edgeStyle=orthogonalEdgeStyle;rounded=0;orthogonalLoop=1;jettySize=auto;html=1;entryX=0;entryY=0.5;entryDx=0;entryDy=0;entryPerimeter=0;" edge="1" parent="1" source="jEJzkhLZVV5mAa2VMmeR-3" target="jEJzkhLZVV5mAa2VMmeR-4">
          <mxGeometry relative="1" as="geometry">
            <Array as="points">
              <mxPoint x="795" y="230" />
            </Array>
          </mxGeometry>
        </mxCell>
        <mxCell id="jEJzkhLZVV5mAa2VMmeR-15" style="edgeStyle=orthogonalEdgeStyle;rounded=0;orthogonalLoop=1;jettySize=auto;html=1;entryX=0;entryY=0.78;entryDx=0;entryDy=0;entryPerimeter=0;" edge="1" parent="1" source="jEJzkhLZVV5mAa2VMmeR-3" target="jEJzkhLZVV5mAa2VMmeR-5">
          <mxGeometry relative="1" as="geometry">
            <Array as="points">
              <mxPoint x="740" y="230" />
              <mxPoint x="740" y="369" />
            </Array>
          </mxGeometry>
        </mxCell>
        <mxCell id="jEJzkhLZVV5mAa2VMmeR-16" value="SQL DB" style="text;html=1;strokeColor=none;fillColor=none;align=center;verticalAlign=middle;whiteSpace=wrap;rounded=0;" vertex="1" parent="1">
          <mxGeometry x="860" y="219" width="60" height="30" as="geometry" />
        </mxCell>
        <mxCell id="jEJzkhLZVV5mAa2VMmeR-17" value="No SQL" style="text;html=1;strokeColor=none;fillColor=none;align=center;verticalAlign=middle;whiteSpace=wrap;rounded=0;" vertex="1" parent="1">
          <mxGeometry x="860" y="350" width="60" height="30" as="geometry" />
        </mxCell>
        <mxCell id="jEJzkhLZVV5mAa2VMmeR-20" value="User Interface" style="text;html=1;strokeColor=none;fillColor=none;align=center;verticalAlign=middle;whiteSpace=wrap;rounded=0;" vertex="1" parent="1">
          <mxGeometry x="220" y="14.5" width="120" height="30" as="geometry" />
        </mxCell>
        <mxCell id="jEJzkhLZVV5mAa2VMmeR-22" value="Events" style="text;html=1;strokeColor=none;fillColor=none;align=center;verticalAlign=middle;whiteSpace=wrap;rounded=0;" vertex="1" parent="1">
          <mxGeometry x="610" width="120" height="30" as="geometry" />
        </mxCell>
        <mxCell id="jEJzkhLZVV5mAa2VMmeR-24" value="Storage" style="text;html=1;strokeColor=none;fillColor=none;align=center;verticalAlign=middle;whiteSpace=wrap;rounded=0;" vertex="1" parent="1">
          <mxGeometry x="785" y="140" width="120" height="30" as="geometry" />
        </mxCell>
        <mxCell id="HHs6U-DJAntEDKrEq0iH-1" value="Elasticache" style="outlineConnect=0;dashed=0;verticalLabelPosition=bottom;verticalAlign=top;align=center;html=1;shape=mxgraph.aws3.elasticache;fillColor=#2E73B8;gradientColor=none;" vertex="1" parent="1">
          <mxGeometry x="643" y="335" width="47" height="55" as="geometry" />
        </mxCell>
        <mxCell id="HHs6U-DJAntEDKrEq0iH-2" style="edgeStyle=orthogonalEdgeStyle;rounded=0;orthogonalLoop=1;jettySize=auto;html=1;startArrow=classic;startFill=1;" edge="1" parent="1" source="jEJzkhLZVV5mAa2VMmeR-3">
          <mxGeometry relative="1" as="geometry">
            <mxPoint x="665" y="330" as="targetPoint" />
          </mxGeometry>
        </mxCell>
        <mxCell id="HHs6U-DJAntEDKrEq0iH-3" value="Cognito" style="sketch=0;points=[[0,0,0],[0.25,0,0],[0.5,0,0],[0.75,0,0],[1,0,0],[0,1,0],[0.25,1,0],[0.5,1,0],[0.75,1,0],[1,1,0],[0,0.25,0],[0,0.5,0],[0,0.75,0],[1,0.25,0],[1,0.5,0],[1,0.75,0]];outlineConnect=0;fontColor=#232F3E;fillColor=#DD344C;strokeColor=#ffffff;dashed=0;verticalLabelPosition=bottom;verticalAlign=top;align=center;html=1;fontSize=12;fontStyle=0;aspect=fixed;shape=mxgraph.aws4.resourceIcon;resIcon=mxgraph.aws4.cognito;" vertex="1" parent="1">
          <mxGeometry x="385" y="50" width="60" height="60" as="geometry" />
        </mxCell>
        <mxCell id="HHs6U-DJAntEDKrEq0iH-4" style="edgeStyle=orthogonalEdgeStyle;rounded=0;orthogonalLoop=1;jettySize=auto;html=1;entryX=0.5;entryY=0;entryDx=0;entryDy=0;entryPerimeter=0;" edge="1" parent="1" source="HHs6U-DJAntEDKrEq0iH-3" target="jEJzkhLZVV5mAa2VMmeR-1">
          <mxGeometry relative="1" as="geometry" />
        </mxCell>
        <mxCell id="HHs6U-DJAntEDKrEq0iH-7" value="Compute" style="text;html=1;strokeColor=none;fillColor=none;align=center;verticalAlign=middle;whiteSpace=wrap;rounded=0;" vertex="1" parent="1">
          <mxGeometry x="480" y="140" width="120" height="30" as="geometry" />
        </mxCell>
        <mxCell id="HHs6U-DJAntEDKrEq0iH-8" value="Kinesis" style="sketch=0;points=[[0,0,0],[0.25,0,0],[0.5,0,0],[0.75,0,0],[1,0,0],[0,1,0],[0.25,1,0],[0.5,1,0],[0.75,1,0],[1,1,0],[0,0.25,0],[0,0.5,0],[0,0.75,0],[1,0.25,0],[1,0.5,0],[1,0.75,0]];outlineConnect=0;fontColor=#232F3E;fillColor=#8C4FFF;strokeColor=#ffffff;dashed=0;verticalLabelPosition=bottom;verticalAlign=top;align=center;html=1;fontSize=12;fontStyle=0;aspect=fixed;shape=mxgraph.aws4.resourceIcon;resIcon=mxgraph.aws4.kinesis;" vertex="1" parent="1">
          <mxGeometry x="636" y="44.5" width="58" height="58" as="geometry" />
        </mxCell>
        <mxCell id="HHs6U-DJAntEDKrEq0iH-11" value="Security" style="text;html=1;strokeColor=none;fillColor=none;align=center;verticalAlign=middle;whiteSpace=wrap;rounded=0;" vertex="1" parent="1">
          <mxGeometry x="370" width="120" height="30" as="geometry" />
        </mxCell>
        <mxCell id="HHs6U-DJAntEDKrEq0iH-12" style="edgeStyle=orthogonalEdgeStyle;rounded=0;orthogonalLoop=1;jettySize=auto;html=1;entryX=0.5;entryY=0;entryDx=0;entryDy=0;entryPerimeter=0;" edge="1" parent="1" source="HHs6U-DJAntEDKrEq0iH-8" target="jEJzkhLZVV5mAa2VMmeR-3">
          <mxGeometry relative="1" as="geometry" />
        </mxCell>
        <mxCell id="daf4XFf3XJKolAiND51s-2" style="edgeStyle=orthogonalEdgeStyle;rounded=0;orthogonalLoop=1;jettySize=auto;html=1;" edge="1" parent="1" source="daf4XFf3XJKolAiND51s-1" target="jEJzkhLZVV5mAa2VMmeR-8">
          <mxGeometry relative="1" as="geometry" />
        </mxCell>
        <mxCell id="daf4XFf3XJKolAiND51s-1" value="Route 53" style="sketch=0;points=[[0,0,0],[0.25,0,0],[0.5,0,0],[0.75,0,0],[1,0,0],[0,1,0],[0.25,1,0],[0.5,1,0],[0.75,1,0],[1,1,0],[0,0.25,0],[0,0.5,0],[0,0.75,0],[1,0.25,0],[1,0.5,0],[1,0.75,0]];outlineConnect=0;fontColor=#232F3E;fillColor=#8C4FFF;strokeColor=#ffffff;dashed=0;verticalLabelPosition=bottom;verticalAlign=top;align=center;html=1;fontSize=12;fontStyle=0;aspect=fixed;shape=mxgraph.aws4.resourceIcon;resIcon=mxgraph.aws4.route_53;" vertex="1" parent="1">
          <mxGeometry x="250" y="70" width="60" height="60" as="geometry" />
        </mxCell>
      </root>
    </mxGraphModel>
  </diagram>
</mxfile>
